<svg xmlns="http://www.w3.org/2000/svg" xmlns:xlink="http://www.w3.org/1999/xlink" width="500" zoomAndPan="magnify" viewBox="0 0 375 374.999991" height="500" preserveAspectRatio="xMidYMid meet" version="1.0"><defs><g/><clipPath id="ffe1960d9a"><path d="M 34.789062 29.847656 L 340.039062 29.847656 L 340.039062 335.097656 L 34.789062 335.097656 Z M 34.789062 29.847656 " clip-rule="nonzero"/></clipPath><clipPath id="433ae4aff2"><path d="M 29.707031 108.976562 L 340.207031 108.976562 L 340.207031 189.226562 L 29.707031 189.226562 Z M 29.707031 108.976562 " clip-rule="nonzero"/></clipPath><clipPath id="30bb99e48e"><path d="M 116.175781 265.515625 L 126.445312 265.515625 L 126.445312 275.785156 L 116.175781 275.785156 Z M 116.175781 265.515625 " clip-rule="nonzero"/></clipPath><clipPath id="5b952b6e98"><path d="M 121.308594 265.515625 C 118.472656 265.515625 116.175781 267.8125 116.175781 270.648438 C 116.175781 273.484375 118.472656 275.785156 121.308594 275.785156 C 124.144531 275.785156 126.445312 273.484375 126.445312 270.648438 C 126.445312 267.8125 124.144531 265.515625 121.308594 265.515625 Z M 121.308594 265.515625 " clip-rule="nonzero"/></clipPath><clipPath id="99dd2b279c"><path d="M 246.894531 265.515625 L 257.164062 265.515625 L 257.164062 275.785156 L 246.894531 275.785156 Z M 246.894531 265.515625 " clip-rule="nonzero"/></clipPath><clipPath id="8899d653bc"><path d="M 252.027344 265.515625 C 249.191406 265.515625 246.894531 267.8125 246.894531 270.648438 C 246.894531 273.484375 249.191406 275.785156 252.027344 275.785156 C 254.863281 275.785156 257.164062 273.484375 257.164062 270.648438 C 257.164062 267.8125 254.863281 265.515625 252.027344 265.515625 Z M 252.027344 265.515625 " clip-rule="nonzero"/></clipPath></defs><rect x="-37.5" width="450" fill="#ffffff" y="-37.499999" height="449.999989" fill-opacity="1"/><rect x="-37.5" width="450" fill="#ffffff" y="-37.499999" height="449.999989" fill-opacity="1"/><g clip-path="url(#ffe1960d9a)"><path fill="#000000" d="M 187.414062 335.097656 C 103.28125 335.097656 34.789062 266.605469 34.789062 182.472656 C 34.789062 98.339844 103.28125 29.847656 187.414062 29.847656 C 271.542969 29.847656 340.039062 98.339844 340.039062 182.472656 C 340.039062 266.605469 271.542969 335.097656 187.414062 335.097656 Z M 187.414062 32.101562 C 104.484375 32.101562 37.042969 99.542969 37.042969 182.472656 C 37.042969 265.402344 104.484375 332.84375 187.414062 332.84375 C 270.34375 332.84375 337.78125 265.402344 337.78125 182.472656 C 337.78125 99.542969 270.34375 32.101562 187.414062 32.101562 Z M 187.414062 32.101562 " fill-opacity="1" fill-rule="nonzero"/></g><g fill="#000000" fill-opacity="1"><g transform="translate(62.261661, 240.649775)"><g><path d="M 1.96875 -0.625 L 1.96875 -30.875 C 1.96875 -31.289062 2.175781 -31.5 2.59375 -31.5 L 12.046875 -31.5 C 13.910156 -31.5 15.320312 -31.019531 16.28125 -30.0625 C 17.238281 -29.101562 17.71875 -27.691406 17.71875 -25.828125 L 17.71875 -16.21875 C 17.71875 -14.382812 17.238281 -12.976562 16.28125 -12 C 15.320312 -11.03125 13.910156 -10.546875 12.046875 -10.546875 L 7.328125 -10.546875 L 7.328125 -0.625 C 7.328125 -0.207031 7.113281 0 6.6875 0 L 2.59375 0 C 2.175781 0 1.96875 -0.207031 1.96875 -0.625 Z M 7.328125 -15.75 L 10.78125 -15.75 C 11.832031 -15.75 12.359375 -16.273438 12.359375 -17.328125 L 12.359375 -24.734375 C 12.359375 -25.773438 11.832031 -26.296875 10.78125 -26.296875 L 7.328125 -26.296875 Z M 7.328125 -15.75 "/></g></g><g transform="translate(81.949159, 240.649775)"><g><path d="M 20.953125 0 L 16.78125 0 C 16.4375 0 16.222656 -0.179688 16.140625 -0.546875 L 15.046875 -6.296875 L 8.03125 -6.296875 L 6.96875 -0.546875 C 6.882812 -0.179688 6.675781 0 6.34375 0 L 2.125 0 C 1.65625 0 1.484375 -0.222656 1.609375 -0.671875 L 8.15625 -30.953125 C 8.226562 -31.316406 8.445312 -31.5 8.8125 -31.5 L 14.296875 -31.5 C 14.660156 -31.5 14.882812 -31.316406 14.96875 -30.953125 L 21.5 -0.671875 C 21.570312 -0.222656 21.390625 0 20.953125 0 Z M 14.0625 -10.875 L 11.53125 -24.609375 L 9.015625 -10.875 Z M 14.0625 -10.875 "/></g></g><g transform="translate(105.022908, 240.649775)"><g><path d="M 1.96875 -0.625 L 1.96875 -30.875 C 1.96875 -31.289062 2.175781 -31.5 2.59375 -31.5 L 12.046875 -31.5 C 13.910156 -31.5 15.320312 -31.015625 16.28125 -30.046875 C 17.238281 -29.078125 17.71875 -27.660156 17.71875 -25.796875 L 17.71875 -5.671875 C 17.71875 -3.828125 17.238281 -2.421875 16.28125 -1.453125 C 15.320312 -0.484375 13.910156 0 12.046875 0 L 2.59375 0 C 2.175781 0 1.96875 -0.207031 1.96875 -0.625 Z M 7.328125 -5.203125 L 10.953125 -5.203125 C 11.992188 -5.203125 12.515625 -5.722656 12.515625 -6.765625 L 12.515625 -24.6875 C 12.515625 -25.757812 11.992188 -26.296875 10.953125 -26.296875 L 7.328125 -26.296875 Z M 7.328125 -5.203125 "/></g></g><g transform="translate(124.710406, 240.649775)"><g><path d="M 17.671875 -30.875 L 17.671875 -26.9375 C 17.671875 -26.488281 17.460938 -26.265625 17.046875 -26.265625 L 7.203125 -26.265625 L 7.203125 -18.390625 L 14.71875 -18.390625 C 15.144531 -18.390625 15.359375 -18.164062 15.359375 -17.71875 L 15.359375 -13.828125 C 15.359375 -13.378906 15.144531 -13.15625 14.71875 -13.15625 L 7.203125 -13.15625 L 7.203125 -5.203125 L 17.046875 -5.203125 C 17.460938 -5.203125 17.671875 -4.988281 17.671875 -4.5625 L 17.671875 -0.625 C 17.671875 -0.207031 17.460938 0 17.046875 0 L 2.5625 0 C 2.164062 0 1.96875 -0.207031 1.96875 -0.625 L 1.96875 -30.875 C 1.96875 -31.289062 2.164062 -31.5 2.5625 -31.5 L 17.046875 -31.5 C 17.460938 -31.5 17.671875 -31.289062 17.671875 -30.875 Z M 17.671875 -30.875 "/></g></g></g><g fill="#000000" fill-opacity="1"><g transform="translate(144.358537, 240.649775)"><g><path d="M 7.328125 -5.203125 L 7.328125 -30.875 C 7.328125 -31.289062 7.113281 -31.5 6.6875 -31.5 L 2.59375 -31.5 C 2.175781 -31.5 1.96875 -31.289062 1.96875 -30.875 L 1.96875 -0.625 C 1.96875 -0.207031 2.175781 0 2.59375 0 L 16.6875 0 C 17.113281 0 17.328125 -0.207031 17.328125 -0.625 L 17.328125 -4.5625 C 17.328125 -4.988281 17.113281 -5.203125 16.6875 -5.203125 Z M 7.328125 -5.203125 "/></g></g></g><g fill="#000000" fill-opacity="1"><g transform="translate(163.65229, 240.649775)"><g/></g><g transform="translate(173.496039, 240.649775)"><g><path d="M 12.359375 -18.34375 L 12.359375 -30.875 C 12.359375 -31.289062 12.570312 -31.5 13 -31.5 L 17.046875 -31.5 C 17.492188 -31.5 17.71875 -31.289062 17.71875 -30.875 L 17.71875 -0.625 C 17.71875 -0.207031 17.492188 0 17.046875 0 L 13 0 C 12.570312 0 12.359375 -0.207031 12.359375 -0.625 L 12.359375 -13.15625 L 7.328125 -13.15625 L 7.328125 -0.625 C 7.328125 -0.207031 7.113281 0 6.6875 0 L 2.640625 0 C 2.191406 0 1.96875 -0.207031 1.96875 -0.625 L 1.96875 -30.875 C 1.96875 -31.289062 2.191406 -31.5 2.640625 -31.5 L 6.6875 -31.5 C 7.113281 -31.5 7.328125 -31.289062 7.328125 -30.875 L 7.328125 -18.34375 Z M 12.359375 -18.34375 "/></g></g><g transform="translate(193.183538, 240.649775)"><g><path d="M 1.96875 -5.671875 L 1.96875 -25.828125 C 1.96875 -27.691406 2.453125 -29.101562 3.421875 -30.0625 C 4.390625 -31.019531 5.796875 -31.5 7.640625 -31.5 L 12.046875 -31.5 C 13.910156 -31.5 15.320312 -31.019531 16.28125 -30.0625 C 17.238281 -29.101562 17.71875 -27.691406 17.71875 -25.828125 L 17.71875 -5.671875 C 17.71875 -3.828125 17.238281 -2.421875 16.28125 -1.453125 C 15.320312 -0.484375 13.910156 0 12.046875 0 L 7.640625 0 C 5.796875 0 4.390625 -0.484375 3.421875 -1.453125 C 2.453125 -2.421875 1.96875 -3.828125 1.96875 -5.671875 Z M 8.78125 -5.078125 L 11.0625 -5.078125 C 12.113281 -5.078125 12.640625 -5.601562 12.640625 -6.65625 L 12.640625 -24.84375 C 12.640625 -25.894531 12.113281 -26.421875 11.0625 -26.421875 L 8.78125 -26.421875 C 7.726562 -26.421875 7.203125 -25.894531 7.203125 -24.84375 L 7.203125 -6.65625 C 7.203125 -5.601562 7.726562 -5.078125 8.78125 -5.078125 Z M 8.78125 -5.078125 "/></g></g><g transform="translate(212.871037, 240.649775)"><g><path d="M 1.96875 -5.671875 L 1.96875 -25.828125 C 1.96875 -27.691406 2.453125 -29.101562 3.421875 -30.0625 C 4.390625 -31.019531 5.796875 -31.5 7.640625 -31.5 L 12.046875 -31.5 C 13.910156 -31.5 15.320312 -31.019531 16.28125 -30.0625 C 17.238281 -29.101562 17.71875 -27.691406 17.71875 -25.828125 L 17.71875 -5.671875 C 17.71875 -3.828125 17.238281 -2.421875 16.28125 -1.453125 C 15.320312 -0.484375 13.910156 0 12.046875 0 L 7.640625 0 C 5.796875 0 4.390625 -0.484375 3.421875 -1.453125 C 2.453125 -2.421875 1.96875 -3.828125 1.96875 -5.671875 Z M 8.78125 -5.078125 L 11.0625 -5.078125 C 12.113281 -5.078125 12.640625 -5.601562 12.640625 -6.65625 L 12.640625 -24.84375 C 12.640625 -25.894531 12.113281 -26.421875 11.0625 -26.421875 L 8.78125 -26.421875 C 7.726562 -26.421875 7.203125 -25.894531 7.203125 -24.84375 L 7.203125 -6.65625 C 7.203125 -5.601562 7.726562 -5.078125 8.78125 -5.078125 Z M 8.78125 -5.078125 "/></g></g><g transform="translate(232.558536, 240.649775)"><g><path d="M 18.828125 0 L 14.640625 0 C 14.203125 0 13.898438 -0.195312 13.734375 -0.59375 L 8.78125 -12.28125 L 7.328125 -9.484375 L 7.328125 -0.78125 C 7.328125 -0.257812 7.0625 0 6.53125 0 L 2.75 0 C 2.226562 0 1.96875 -0.257812 1.96875 -0.78125 L 1.96875 -30.71875 C 1.96875 -31.238281 2.226562 -31.5 2.75 -31.5 L 6.53125 -31.5 C 7.0625 -31.5 7.328125 -31.238281 7.328125 -30.71875 L 7.328125 -18.5 L 13.390625 -30.90625 C 13.597656 -31.300781 13.898438 -31.5 14.296875 -31.5 L 18.421875 -31.5 C 18.710938 -31.5 18.910156 -31.410156 19.015625 -31.234375 C 19.117188 -31.066406 19.109375 -30.84375 18.984375 -30.5625 L 12.28125 -16.8125 L 19.40625 -0.90625 C 19.539062 -0.644531 19.554688 -0.425781 19.453125 -0.25 C 19.347656 -0.0820312 19.140625 0 18.828125 0 Z M 18.828125 0 "/></g></g><g transform="translate(253.663534, 240.649775)"><g><path d="M 13.3125 -31.5 L 16.9375 -31.5 C 17.144531 -31.5 17.328125 -31.421875 17.484375 -31.265625 C 17.640625 -31.109375 17.71875 -30.925781 17.71875 -30.71875 L 17.71875 -5.671875 C 17.71875 -3.828125 17.238281 -2.421875 16.28125 -1.453125 C 15.320312 -0.484375 13.910156 0 12.046875 0 L 7.640625 0 C 5.796875 0 4.390625 -0.484375 3.421875 -1.453125 C 2.453125 -2.421875 1.96875 -3.828125 1.96875 -5.671875 L 1.96875 -30.71875 C 1.96875 -30.925781 2.046875 -31.109375 2.203125 -31.265625 C 2.359375 -31.421875 2.539062 -31.5 2.75 -31.5 L 6.53125 -31.5 C 6.738281 -31.5 6.921875 -31.421875 7.078125 -31.265625 C 7.242188 -31.109375 7.328125 -30.925781 7.328125 -30.71875 L 7.328125 -6.765625 C 7.328125 -5.722656 7.851562 -5.203125 8.90625 -5.203125 L 10.953125 -5.203125 C 11.992188 -5.203125 12.515625 -5.722656 12.515625 -6.765625 L 12.515625 -30.71875 C 12.515625 -30.925781 12.59375 -31.109375 12.75 -31.265625 C 12.914062 -31.421875 13.101562 -31.5 13.3125 -31.5 Z M 13.3125 -31.5 "/></g></g><g transform="translate(273.351033, 240.649775)"><g><path d="M 1.96875 -0.625 L 1.96875 -30.875 C 1.96875 -31.289062 2.175781 -31.5 2.59375 -31.5 L 12.046875 -31.5 C 13.910156 -31.5 15.320312 -31.019531 16.28125 -30.0625 C 17.238281 -29.101562 17.71875 -27.691406 17.71875 -25.828125 L 17.71875 -16.21875 C 17.71875 -14.382812 17.238281 -12.976562 16.28125 -12 C 15.320312 -11.03125 13.910156 -10.546875 12.046875 -10.546875 L 7.328125 -10.546875 L 7.328125 -0.625 C 7.328125 -0.207031 7.113281 0 6.6875 0 L 2.59375 0 C 2.175781 0 1.96875 -0.207031 1.96875 -0.625 Z M 7.328125 -15.75 L 10.78125 -15.75 C 11.832031 -15.75 12.359375 -16.273438 12.359375 -17.328125 L 12.359375 -24.734375 C 12.359375 -25.773438 11.832031 -26.296875 10.78125 -26.296875 L 7.328125 -26.296875 Z M 7.328125 -15.75 "/></g></g><g transform="translate(293.038532, 240.649775)"><g><path d="M 7.640625 -31.5 L 12.046875 -31.5 C 13.910156 -31.5 15.320312 -31.019531 16.28125 -30.0625 C 17.238281 -29.101562 17.71875 -27.691406 17.71875 -25.828125 L 17.71875 -21.65625 C 17.71875 -21.238281 17.507812 -21.03125 17.09375 -21.03125 L 13 -21.03125 C 12.570312 -21.03125 12.359375 -21.238281 12.359375 -21.65625 L 12.359375 -24.734375 C 12.359375 -25.773438 11.832031 -26.296875 10.78125 -26.296875 L 8.90625 -26.296875 C 7.851562 -26.296875 7.328125 -25.773438 7.328125 -24.734375 L 7.328125 -19.296875 L 16.6875 -16.21875 C 17.375 -15.9375 17.71875 -15.453125 17.71875 -14.765625 L 17.71875 -5.671875 C 17.71875 -3.828125 17.238281 -2.421875 16.28125 -1.453125 C 15.320312 -0.484375 13.910156 0 12.046875 0 L 7.640625 0 C 5.796875 0 4.390625 -0.484375 3.421875 -1.453125 C 2.453125 -2.421875 1.96875 -3.828125 1.96875 -5.671875 L 1.96875 -9.796875 C 1.96875 -10.222656 2.175781 -10.4375 2.59375 -10.4375 L 6.6875 -10.4375 C 7.113281 -10.4375 7.328125 -10.222656 7.328125 -9.796875 L 7.328125 -6.765625 C 7.328125 -5.722656 7.851562 -5.203125 8.90625 -5.203125 L 10.78125 -5.203125 C 11.832031 -5.203125 12.359375 -5.722656 12.359375 -6.765625 L 12.359375 -12.015625 L 3.03125 -15.078125 C 2.320312 -15.316406 1.96875 -15.800781 1.96875 -16.53125 L 1.96875 -25.828125 C 1.96875 -27.691406 2.453125 -29.101562 3.421875 -30.0625 C 4.390625 -31.019531 5.796875 -31.5 7.640625 -31.5 Z M 7.640625 -31.5 "/></g></g></g><g fill="#000000" fill-opacity="1"><g transform="translate(136.722143, 279.138924)"><g><path d="M 12.28125 0 L 1.5625 0 L 1.5625 -15.640625 L 12.28125 -15.640625 L 12.28125 -12.40625 L 5.140625 -12.40625 L 5.140625 -9.390625 L 11.84375 -9.390625 L 11.84375 -6.25 L 5.140625 -6.25 L 5.140625 -3.234375 L 12.28125 -3.234375 Z M 12.28125 0 "/></g></g></g><g fill="#000000" fill-opacity="1"><g transform="translate(150.118327, 279.138924)"><g><path d="M 7.15625 0.21875 C 5.8125 0.21875 4.648438 -0.0078125 3.671875 -0.46875 C 2.703125 -0.925781 1.957031 -1.5625 1.4375 -2.375 C 0.925781 -3.1875 0.671875 -4.097656 0.671875 -5.109375 L 4.25 -5.109375 C 4.25 -4.472656 4.5 -3.945312 5 -3.53125 C 5.507812 -3.113281 6.226562 -2.90625 7.15625 -2.90625 C 8.039062 -2.90625 8.707031 -3.0625 9.15625 -3.375 C 9.601562 -3.6875 9.828125 -4.085938 9.828125 -4.578125 C 9.828125 -4.992188 9.65625 -5.335938 9.3125 -5.609375 C 8.96875 -5.890625 8.394531 -6.101562 7.59375 -6.25 L 5.140625 -6.703125 C 3.734375 -6.953125 2.691406 -7.4375 2.015625 -8.15625 C 1.335938 -8.875 1 -9.84375 1 -11.0625 C 1 -11.96875 1.234375 -12.78125 1.703125 -13.5 C 2.171875 -14.226562 2.847656 -14.800781 3.734375 -15.21875 C 4.628906 -15.644531 5.691406 -15.859375 6.921875 -15.859375 C 8.265625 -15.859375 9.414062 -15.628906 10.375 -15.171875 C 11.332031 -14.722656 12.054688 -14.097656 12.546875 -13.296875 C 13.046875 -12.492188 13.296875 -11.5625 13.296875 -10.5 L 9.71875 -10.5 C 9.71875 -11.125 9.460938 -11.648438 8.953125 -12.078125 C 8.453125 -12.515625 7.773438 -12.734375 6.921875 -12.734375 C 6.179688 -12.734375 5.601562 -12.570312 5.1875 -12.25 C 4.78125 -11.9375 4.578125 -11.539062 4.578125 -11.0625 C 4.578125 -10.65625 4.710938 -10.34375 4.984375 -10.125 C 5.265625 -9.914062 5.765625 -9.742188 6.484375 -9.609375 L 8.9375 -9.15625 C 10.5 -8.875 11.632812 -8.375 12.34375 -7.65625 C 13.050781 -6.945312 13.40625 -5.921875 13.40625 -4.578125 C 13.40625 -3.671875 13.164062 -2.851562 12.6875 -2.125 C 12.207031 -1.394531 11.5 -0.820312 10.5625 -0.40625 C 9.625 0.0078125 8.488281 0.21875 7.15625 0.21875 Z M 7.15625 0.21875 "/></g></g></g><g fill="#000000" fill-opacity="1"><g transform="translate(164.407599, 279.138924)"><g><path d="M 8.375 0 L 4.796875 0 L 4.796875 -12.171875 L 0.453125 -12.171875 L 0.453125 -15.640625 L 12.734375 -15.640625 L 12.734375 -12.171875 L 8.375 -12.171875 Z M 8.375 0 "/></g></g></g><g fill="#000000" fill-opacity="1"><g transform="translate(177.580521, 279.138924)"><g/></g></g><g fill="#000000" fill-opacity="1"><g transform="translate(183.608808, 279.138924)"><g><path d="M 1.109375 0 L 1.109375 -3.15625 L 7.5 -8.921875 C 7.789062 -9.171875 8.003906 -9.414062 8.140625 -9.65625 C 8.285156 -9.90625 8.359375 -10.234375 8.359375 -10.640625 C 8.359375 -11.128906 8.179688 -11.546875 7.828125 -11.890625 C 7.484375 -12.234375 7.039062 -12.40625 6.5 -12.40625 C 5.914062 -12.40625 5.429688 -12.195312 5.046875 -11.78125 C 4.660156 -11.375 4.46875 -10.859375 4.46875 -10.234375 L 0.890625 -10.234375 C 0.890625 -11.335938 1.125 -12.316406 1.59375 -13.171875 C 2.0625 -14.023438 2.71875 -14.6875 3.5625 -15.15625 C 4.414062 -15.625 5.394531 -15.859375 6.5 -15.859375 C 7.601562 -15.859375 8.566406 -15.632812 9.390625 -15.1875 C 10.222656 -14.738281 10.863281 -14.125 11.3125 -13.34375 C 11.769531 -12.5625 12 -11.679688 12 -10.703125 C 12 -9.828125 11.785156 -9.070312 11.359375 -8.4375 C 10.929688 -7.800781 10.285156 -7.085938 9.421875 -6.296875 L 6.375 -3.484375 L 6.375 -3.375 L 12.09375 -3.375 L 12.09375 0 Z M 1.109375 0 "/></g></g></g><g fill="#000000" fill-opacity="1"><g transform="translate(196.580793, 279.138924)"><g><path d="M 7.546875 0.21875 C 6.296875 0.21875 5.164062 -0.0976562 4.15625 -0.734375 C 3.15625 -1.378906 2.359375 -2.304688 1.765625 -3.515625 C 1.179688 -4.734375 0.890625 -6.164062 0.890625 -7.8125 C 0.890625 -9.46875 1.179688 -10.898438 1.765625 -12.109375 C 2.359375 -13.328125 3.15625 -14.253906 4.15625 -14.890625 C 5.164062 -15.535156 6.296875 -15.859375 7.546875 -15.859375 C 8.796875 -15.859375 9.925781 -15.535156 10.9375 -14.890625 C 11.945312 -14.253906 12.738281 -13.328125 13.3125 -12.109375 C 13.894531 -10.898438 14.1875 -9.46875 14.1875 -7.8125 C 14.1875 -6.164062 13.894531 -4.734375 13.3125 -3.515625 C 12.738281 -2.304688 11.945312 -1.378906 10.9375 -0.734375 C 9.925781 -0.0976562 8.796875 0.21875 7.546875 0.21875 Z M 7.546875 -3.234375 C 8.097656 -3.234375 8.609375 -3.40625 9.078125 -3.75 C 9.546875 -4.09375 9.914062 -4.609375 10.1875 -5.296875 C 10.46875 -5.984375 10.609375 -6.820312 10.609375 -7.8125 C 10.609375 -8.8125 10.46875 -9.65625 10.1875 -10.34375 C 9.914062 -11.03125 9.546875 -11.546875 9.078125 -11.890625 C 8.609375 -12.234375 8.097656 -12.40625 7.546875 -12.40625 C 6.992188 -12.40625 6.484375 -12.234375 6.015625 -11.890625 C 5.546875 -11.546875 5.171875 -11.03125 4.890625 -10.34375 C 4.609375 -9.65625 4.46875 -8.8125 4.46875 -7.8125 C 4.46875 -6.820312 4.609375 -5.984375 4.890625 -5.296875 C 5.171875 -4.609375 5.546875 -4.09375 6.015625 -3.75 C 6.484375 -3.40625 6.992188 -3.234375 7.546875 -3.234375 Z M 7.546875 -3.234375 "/></g></g></g><g fill="#000000" fill-opacity="1"><g transform="translate(211.651511, 279.138924)"><g><path d="M 1.109375 0 L 1.109375 -3.15625 L 7.5 -8.921875 C 7.789062 -9.171875 8.003906 -9.414062 8.140625 -9.65625 C 8.285156 -9.90625 8.359375 -10.234375 8.359375 -10.640625 C 8.359375 -11.128906 8.179688 -11.546875 7.828125 -11.890625 C 7.484375 -12.234375 7.039062 -12.40625 6.5 -12.40625 C 5.914062 -12.40625 5.429688 -12.195312 5.046875 -11.78125 C 4.660156 -11.375 4.46875 -10.859375 4.46875 -10.234375 L 0.890625 -10.234375 C 0.890625 -11.335938 1.125 -12.316406 1.59375 -13.171875 C 2.0625 -14.023438 2.71875 -14.6875 3.5625 -15.15625 C 4.414062 -15.625 5.394531 -15.859375 6.5 -15.859375 C 7.601562 -15.859375 8.566406 -15.632812 9.390625 -15.1875 C 10.222656 -14.738281 10.863281 -14.125 11.3125 -13.34375 C 11.769531 -12.5625 12 -11.679688 12 -10.703125 C 12 -9.828125 11.785156 -9.070312 11.359375 -8.4375 C 10.929688 -7.800781 10.285156 -7.085938 9.421875 -6.296875 L 6.375 -3.484375 L 6.375 -3.375 L 12.09375 -3.375 L 12.09375 0 Z M 1.109375 0 "/></g></g></g><g fill="#000000" fill-opacity="1"><g transform="translate(224.623496, 279.138924)"><g><path d="M 6.484375 0.21875 C 5.304688 0.21875 4.273438 0 3.390625 -0.4375 C 2.515625 -0.882812 1.84375 -1.503906 1.375 -2.296875 C 0.90625 -3.085938 0.671875 -3.984375 0.671875 -4.984375 L 4.25 -4.984375 C 4.25 -4.472656 4.453125 -4.039062 4.859375 -3.6875 C 5.265625 -3.332031 5.804688 -3.15625 6.484375 -3.15625 C 7.117188 -3.15625 7.617188 -3.3125 7.984375 -3.625 C 8.347656 -3.9375 8.53125 -4.320312 8.53125 -4.78125 C 8.53125 -5.300781 8.335938 -5.722656 7.953125 -6.046875 C 7.578125 -6.378906 7.050781 -6.546875 6.375 -6.546875 L 5.3125 -6.546875 L 5.3125 -9.46875 L 6.375 -9.46875 C 7 -9.46875 7.476562 -9.617188 7.8125 -9.921875 C 8.144531 -10.234375 8.3125 -10.617188 8.3125 -11.078125 C 8.3125 -11.460938 8.144531 -11.789062 7.8125 -12.0625 C 7.476562 -12.34375 7.019531 -12.484375 6.4375 -12.484375 C 5.84375 -12.484375 5.363281 -12.335938 5 -12.046875 C 4.644531 -11.765625 4.46875 -11.390625 4.46875 -10.921875 L 0.890625 -10.921875 C 0.890625 -11.828125 1.125 -12.65625 1.59375 -13.40625 C 2.0625 -14.164062 2.722656 -14.765625 3.578125 -15.203125 C 4.441406 -15.640625 5.429688 -15.859375 6.546875 -15.859375 C 7.609375 -15.859375 8.539062 -15.648438 9.34375 -15.234375 C 10.144531 -14.816406 10.769531 -14.257812 11.21875 -13.5625 C 11.664062 -12.863281 11.890625 -12.085938 11.890625 -11.234375 C 11.890625 -10.429688 11.679688 -9.742188 11.265625 -9.171875 C 10.847656 -8.609375 10.378906 -8.234375 9.859375 -8.046875 L 9.859375 -7.9375 C 10.421875 -7.738281 10.9375 -7.328125 11.40625 -6.703125 C 11.875 -6.085938 12.109375 -5.335938 12.109375 -4.453125 C 12.109375 -3.609375 11.875 -2.828125 11.40625 -2.109375 C 10.945312 -1.398438 10.289062 -0.832031 9.4375 -0.40625 C 8.582031 0.0078125 7.597656 0.21875 6.484375 0.21875 Z M 6.484375 0.21875 "/></g></g></g><g clip-path="url(#433ae4aff2)"><path fill="#000000" d="M 38.53125 285.304688 C 38.796875 283.976562 38.929688 282.125 38.929688 279.738281 C 38.929688 278.414062 38.863281 276.890625 38.796875 275.234375 C 38.332031 266.359375 38.066406 255.296875 38.066406 242.3125 C 38.066406 224.894531 38.53125 208.664062 38.730469 202.4375 L 49.726562 201.710938 L 49.726562 200.382812 L 50.386719 200.382812 L 53.039062 193.628906 C 53.039062 193.5625 53.105469 193.429688 53.105469 193.363281 L 54.429688 180.183594 C 54.429688 180.050781 54.496094 179.917969 54.5625 179.785156 L 56.945312 175.808594 C 57.011719 175.742188 57.011719 175.675781 57.011719 175.613281 L 50.71875 175.613281 L 49.660156 189.851562 L 49.660156 174.285156 L 38 173.492188 C 36.410156 173.359375 35.085938 175.082031 35.085938 177.136719 L 35.085938 198.796875 C 35.085938 199.125 35.085938 199.390625 35.152344 199.65625 C 34.753906 201.777344 32.636719 213.699219 30.515625 236.75 C 29.855469 243.835938 29.523438 250.726562 29.523438 257.21875 C 29.523438 265.5625 30.117188 273.378906 31.113281 279.210938 C 32.570312 287.289062 34.160156 288.417969 35.75 288.417969 C 37.207031 288.484375 38.066406 287.421875 38.53125 285.304688 Z M 33.164062 257.285156 C 33.164062 250.859375 33.496094 244.101562 34.160156 237.148438 C 34.292969 236.019531 34.359375 234.894531 34.492188 233.835938 C 34.492188 236.617188 34.425781 239.398438 34.425781 242.3125 C 34.425781 255.363281 34.6875 266.492188 35.152344 275.433594 C 35.21875 277.023438 35.285156 278.480469 35.285156 279.738281 C 35.285156 280.269531 35.285156 280.800781 35.285156 281.195312 C 34.292969 276.890625 33.164062 269.074219 33.164062 257.285156 Z M 173.527344 176.074219 C 172.929688 178.59375 172.53125 180.777344 172.332031 182.5 C 172.136719 184.289062 172.070312 185.613281 172.070312 186.539062 C 172.070312 187.46875 172.070312 187.933594 172.070312 187.933594 C 172.070312 187.933594 172.070312 188.394531 172.070312 189.324219 C 172.070312 190.25 172.136719 191.640625 172.332031 193.363281 C 172.53125 195.152344 172.863281 197.335938 173.527344 199.789062 C 174.121094 202.304688 175.050781 205.152344 176.375 208.199219 C 177.699219 211.246094 179.421875 214.558594 181.605469 217.871094 C 183.792969 221.25 186.507812 224.628906 189.6875 228.007812 C 192.867188 231.382812 196.511719 234.695312 200.617188 237.875 C 204.789062 240.988281 209.363281 244.035156 214.328125 246.753906 C 219.363281 249.46875 224.796875 251.917969 230.558594 253.972656 C 236.320312 256.027344 242.480469 257.679688 248.90625 258.808594 C 252.152344 259.335938 255.398438 259.734375 258.710938 259.933594 C 259.105469 259.933594 259.570312 260 259.96875 260 C 260.367188 260 260.828125 260.066406 261.226562 260.066406 C 262.085938 260.066406 262.949219 260.132812 263.742188 260.132812 L 266.328125 260.132812 C 267.1875 260.132812 268.050781 260.132812 268.910156 260.066406 C 269.769531 260 270.632812 259.933594 271.492188 259.933594 C 271.890625 259.933594 272.355469 259.867188 272.753906 259.867188 L 274.011719 259.734375 C 274.871094 259.667969 275.734375 259.601562 276.59375 259.46875 C 277.457031 259.335938 278.316406 259.203125 279.175781 259.074219 C 280.039062 258.941406 280.898438 258.742188 281.761719 258.609375 C 282.621094 258.410156 283.484375 258.277344 284.34375 258.078125 C 285.207031 257.878906 286.066406 257.679688 286.925781 257.484375 C 287.789062 257.21875 288.648438 257.019531 289.445312 256.753906 C 290.304688 256.554688 291.101562 256.222656 291.960938 255.960938 C 292.824219 255.695312 293.617188 255.363281 294.480469 255.03125 C 295.273438 254.699219 296.132812 254.371094 296.929688 254.039062 C 297.722656 253.640625 298.585938 253.308594 299.378906 252.914062 C 302.625 251.324219 305.738281 249.46875 308.652344 247.28125 C 309.382812 246.753906 310.109375 246.15625 310.839844 245.625 C 311.503906 245.03125 312.230469 244.433594 312.894531 243.835938 C 313.222656 243.574219 313.554688 243.242188 313.886719 242.910156 L 314.878906 241.917969 L 315.410156 241.453125 L 315.675781 241.253906 L 315.941406 240.988281 L 317.792969 239.003906 C 318.125 238.671875 318.390625 238.273438 318.65625 237.941406 L 319.515625 236.882812 L 319.980469 236.351562 L 320.378906 235.824219 C 320.90625 235.09375 321.4375 234.367188 322.035156 233.570312 C 322.5625 232.777344 323.027344 232.046875 323.558594 231.253906 C 325.476562 228.074219 327.132812 224.761719 328.589844 221.316406 C 329.984375 217.871094 331.042969 214.230469 331.96875 210.585938 L 332.566406 207.804688 L 333.03125 205.019531 C 333.226562 204.09375 333.292969 203.167969 333.425781 202.238281 C 333.558594 201.3125 333.691406 200.382812 333.757812 199.457031 L 334.023438 196.609375 C 334.089844 195.683594 334.15625 194.753906 334.15625 193.761719 L 334.222656 192.371094 C 334.222656 191.90625 334.222656 191.441406 334.222656 190.914062 L 334.289062 188.0625 L 334.222656 185.148438 C 334.222656 184.6875 334.222656 184.222656 334.15625 183.757812 L 334.089844 182.300781 C 334.023438 181.375 333.957031 180.445312 333.890625 179.453125 L 333.625 176.605469 C 333.558594 175.675781 333.359375 174.75 333.292969 173.824219 C 333.164062 172.894531 333.03125 171.96875 332.832031 171.039062 L 332.300781 168.257812 L 331.640625 165.542969 C 330.710938 161.898438 329.652344 158.324219 328.195312 154.878906 C 326.804688 151.433594 325.082031 148.121094 323.160156 145.007812 C 322.628906 144.214844 322.167969 143.484375 321.636719 142.691406 C 321.105469 141.960938 320.578125 141.234375 319.980469 140.4375 L 319.582031 139.910156 L 319.121094 139.378906 L 318.257812 138.320312 C 317.992188 137.988281 317.664062 137.589844 317.398438 137.257812 L 316.46875 136.265625 L 315.542969 135.273438 L 315.078125 134.808594 L 314.617188 134.34375 L 313.621094 133.417969 C 313.289062 133.085938 312.960938 132.753906 312.628906 132.488281 C 311.964844 131.894531 311.238281 131.296875 310.574219 130.703125 C 309.847656 130.171875 309.117188 129.574219 308.390625 129.046875 C 305.472656 126.925781 302.359375 125.070312 299.179688 123.546875 C 298.386719 123.148438 297.59375 122.820312 296.730469 122.421875 C 295.9375 122.089844 295.074219 121.757812 294.28125 121.429688 C 293.484375 121.097656 292.625 120.832031 291.761719 120.5 C 290.902344 120.234375 290.105469 119.902344 289.246094 119.707031 C 288.382812 119.441406 287.589844 119.242188 286.730469 118.976562 C 285.867188 118.777344 285.007812 118.578125 284.144531 118.378906 C 283.285156 118.183594 282.421875 118.050781 281.5625 117.851562 C 280.699219 117.71875 279.839844 117.519531 278.980469 117.386719 C 278.117188 117.253906 277.257812 117.121094 276.394531 116.988281 C 275.535156 116.855469 274.671875 116.792969 273.8125 116.726562 L 272.554688 116.59375 C 272.15625 116.527344 271.691406 116.527344 271.296875 116.527344 C 270.433594 116.460938 269.574219 116.394531 268.777344 116.394531 C 267.917969 116.328125 267.054688 116.328125 266.195312 116.328125 L 263.675781 116.328125 C 262.816406 116.328125 262.019531 116.394531 261.160156 116.394531 C 260.761719 116.394531 260.300781 116.394531 259.902344 116.460938 C 259.503906 116.460938 259.039062 116.527344 258.644531 116.527344 C 255.332031 116.726562 252.085938 117.121094 248.839844 117.652344 C 236.054688 119.839844 224.398438 124.144531 214.394531 129.507812 C 213.800781 129.839844 213.136719 130.171875 212.539062 130.503906 C 211.945312 130.832031 211.347656 131.230469 210.753906 131.5625 C 210.15625 131.894531 209.558594 132.226562 208.964844 132.621094 C 208.367188 133.019531 207.839844 133.351562 207.242188 133.75 C 206.644531 134.144531 206.117188 134.476562 205.519531 134.875 C 204.988281 135.273438 204.394531 135.667969 203.863281 136 C 203.332031 136.398438 202.804688 136.730469 202.207031 137.125 C 201.675781 137.523438 201.148438 137.921875 200.617188 138.320312 C 196.511719 141.433594 192.800781 144.742188 189.621094 148.121094 C 186.441406 151.5 183.726562 154.878906 181.476562 158.191406 C 179.289062 161.503906 177.5 164.75 176.175781 167.863281 C 175.050781 170.710938 174.121094 173.558594 173.527344 176.074219 Z M 283.417969 246.421875 C 283.417969 248.738281 281.5625 250.59375 279.242188 250.59375 C 276.925781 250.59375 275.070312 248.738281 275.070312 246.421875 C 275.070312 244.101562 276.925781 242.246094 279.242188 242.246094 C 281.5625 242.179688 283.417969 244.101562 283.417969 246.421875 Z M 266.722656 246.421875 C 266.722656 248.738281 264.871094 250.59375 262.550781 250.59375 C 260.234375 250.59375 258.378906 248.738281 258.378906 246.421875 C 258.378906 244.101562 260.234375 242.246094 262.550781 242.246094 C 264.871094 242.179688 266.722656 244.101562 266.722656 246.421875 Z M 250.03125 246.421875 C 250.03125 248.738281 248.175781 250.59375 245.859375 250.59375 C 243.539062 250.59375 241.6875 248.738281 241.6875 246.421875 C 241.6875 244.101562 243.539062 242.246094 245.859375 242.246094 C 248.175781 242.179688 250.03125 244.101562 250.03125 246.421875 Z M 300.109375 229.730469 C 300.109375 232.046875 298.253906 233.902344 295.9375 233.902344 C 293.617188 233.902344 291.761719 232.046875 291.761719 229.730469 C 291.761719 227.410156 293.617188 225.554688 295.9375 225.554688 C 298.253906 225.488281 300.109375 227.410156 300.109375 229.730469 Z M 283.417969 229.730469 C 283.417969 232.046875 281.5625 233.902344 279.242188 233.902344 C 276.925781 233.902344 275.070312 232.046875 275.070312 229.730469 C 275.070312 227.410156 276.925781 225.554688 279.242188 225.554688 C 281.5625 225.488281 283.417969 227.410156 283.417969 229.730469 Z M 266.722656 229.730469 C 266.722656 232.046875 264.871094 233.902344 262.550781 233.902344 C 260.234375 233.902344 258.378906 232.046875 258.378906 229.730469 C 258.378906 227.410156 260.234375 225.554688 262.550781 225.554688 C 264.871094 225.488281 266.722656 227.410156 266.722656 229.730469 Z M 250.03125 229.730469 C 250.03125 232.046875 248.175781 233.902344 245.859375 233.902344 C 243.539062 233.902344 241.6875 232.046875 241.6875 229.730469 C 241.6875 227.410156 243.539062 225.554688 245.859375 225.554688 C 248.175781 225.488281 250.03125 227.410156 250.03125 229.730469 Z M 233.339844 229.730469 C 233.339844 232.046875 231.484375 233.902344 229.167969 233.902344 C 226.847656 233.902344 224.992188 232.046875 224.992188 229.730469 C 224.992188 227.410156 226.847656 225.554688 229.167969 225.554688 C 231.484375 225.488281 233.339844 227.410156 233.339844 229.730469 Z M 216.714844 229.730469 C 216.714844 232.046875 214.859375 233.902344 212.539062 233.902344 C 210.222656 233.902344 208.367188 232.046875 208.367188 229.730469 C 208.367188 227.410156 210.222656 225.554688 212.539062 225.554688 C 214.792969 225.488281 216.714844 227.410156 216.714844 229.730469 Z M 316.800781 213.035156 C 316.800781 215.355469 314.945312 217.210938 312.628906 217.210938 C 310.308594 217.210938 308.453125 215.355469 308.453125 213.035156 C 308.453125 210.71875 310.308594 208.863281 312.628906 208.863281 C 314.945312 208.796875 316.800781 210.71875 316.800781 213.035156 Z M 300.109375 213.035156 C 300.109375 215.355469 298.253906 217.210938 295.9375 217.210938 C 293.617188 217.210938 291.761719 215.355469 291.761719 213.035156 C 291.761719 210.71875 293.617188 208.863281 295.9375 208.863281 C 298.253906 208.796875 300.109375 210.71875 300.109375 213.035156 Z M 283.417969 213.035156 C 283.417969 215.355469 281.5625 217.210938 279.242188 217.210938 C 276.925781 217.210938 275.070312 215.355469 275.070312 213.035156 C 275.070312 210.71875 276.925781 208.863281 279.242188 208.863281 C 281.5625 208.796875 283.417969 210.71875 283.417969 213.035156 Z M 266.722656 213.035156 C 266.722656 215.355469 264.871094 217.210938 262.550781 217.210938 C 260.234375 217.210938 258.378906 215.355469 258.378906 213.035156 C 258.378906 210.71875 260.234375 208.863281 262.550781 208.863281 C 264.871094 208.796875 266.722656 210.71875 266.722656 213.035156 Z M 250.03125 213.035156 C 250.03125 215.355469 248.175781 217.210938 245.859375 217.210938 C 243.539062 217.210938 241.6875 215.355469 241.6875 213.035156 C 241.6875 210.71875 243.539062 208.863281 245.859375 208.863281 C 248.175781 208.796875 250.03125 210.71875 250.03125 213.035156 Z M 233.339844 213.035156 C 233.339844 215.355469 231.484375 217.210938 229.167969 217.210938 C 226.847656 217.210938 224.992188 215.355469 224.992188 213.035156 C 224.992188 210.71875 226.847656 208.863281 229.167969 208.863281 C 231.484375 208.796875 233.339844 210.71875 233.339844 213.035156 Z M 216.714844 213.035156 C 216.714844 215.355469 214.859375 217.210938 212.539062 217.210938 C 210.222656 217.210938 208.367188 215.355469 208.367188 213.035156 C 208.367188 210.71875 210.222656 208.863281 212.539062 208.863281 C 214.792969 208.796875 216.714844 210.71875 216.714844 213.035156 Z M 200.023438 213.035156 C 200.023438 215.355469 198.167969 217.210938 195.847656 217.210938 C 193.53125 217.210938 191.675781 215.355469 191.675781 213.035156 C 191.675781 210.71875 193.53125 208.863281 195.847656 208.863281 C 198.101562 208.796875 200.023438 210.71875 200.023438 213.035156 Z M 191.609375 196.34375 C 191.609375 194.027344 193.464844 192.171875 195.78125 192.171875 C 198.101562 192.171875 199.957031 194.027344 199.957031 196.34375 C 199.957031 198.664062 198.101562 200.515625 195.78125 200.515625 C 193.464844 200.515625 191.609375 198.664062 191.609375 196.34375 Z M 208.300781 196.34375 C 208.300781 194.027344 210.15625 192.171875 212.476562 192.171875 C 214.792969 192.171875 216.648438 194.027344 216.648438 196.34375 C 216.648438 198.664062 214.792969 200.515625 212.476562 200.515625 C 210.15625 200.515625 208.300781 198.664062 208.300781 196.34375 Z M 224.992188 196.34375 C 224.992188 194.027344 226.847656 192.171875 229.167969 192.171875 C 231.484375 192.171875 233.339844 194.027344 233.339844 196.34375 C 233.339844 198.664062 231.484375 200.515625 229.167969 200.515625 C 226.847656 200.515625 224.992188 198.664062 224.992188 196.34375 Z M 241.6875 196.34375 C 241.6875 194.027344 243.539062 192.171875 245.859375 192.171875 C 248.175781 192.171875 250.03125 194.027344 250.03125 196.34375 C 250.03125 198.664062 248.175781 200.515625 245.859375 200.515625 C 243.539062 200.515625 241.6875 198.664062 241.6875 196.34375 Z M 258.378906 196.34375 C 258.378906 194.027344 260.234375 192.171875 262.550781 192.171875 C 264.871094 192.171875 266.722656 194.027344 266.722656 196.34375 C 266.722656 198.664062 264.871094 200.515625 262.550781 200.515625 C 260.234375 200.515625 258.378906 198.664062 258.378906 196.34375 Z M 275.070312 196.34375 C 275.070312 194.027344 276.925781 192.171875 279.242188 192.171875 C 281.5625 192.171875 283.417969 194.027344 283.417969 196.34375 C 283.417969 198.664062 281.5625 200.515625 279.242188 200.515625 C 276.925781 200.515625 275.070312 198.664062 275.070312 196.34375 Z M 316.800781 196.34375 C 316.800781 198.664062 314.945312 200.515625 312.628906 200.515625 C 310.308594 200.515625 308.453125 198.664062 308.453125 196.34375 C 308.453125 194.027344 310.308594 192.171875 312.628906 192.171875 C 314.945312 192.105469 316.800781 194.027344 316.800781 196.34375 Z M 300.109375 196.34375 C 300.109375 198.664062 298.253906 200.515625 295.9375 200.515625 C 293.617188 200.515625 291.761719 198.664062 291.761719 196.34375 C 291.761719 194.027344 293.617188 192.171875 295.9375 192.171875 C 298.253906 192.105469 300.109375 194.027344 300.109375 196.34375 Z M 191.609375 179.652344 C 191.609375 177.332031 193.464844 175.480469 195.78125 175.480469 C 198.101562 175.480469 199.957031 177.332031 199.957031 179.652344 C 199.957031 181.96875 198.101562 183.824219 195.78125 183.824219 C 193.464844 183.824219 191.609375 181.96875 191.609375 179.652344 Z M 316.800781 179.652344 C 316.800781 181.96875 314.945312 183.824219 312.628906 183.824219 C 310.308594 183.824219 308.453125 181.96875 308.453125 179.652344 C 308.453125 177.332031 310.308594 175.480469 312.628906 175.480469 C 314.945312 175.480469 316.800781 177.332031 316.800781 179.652344 Z M 300.109375 179.652344 C 300.109375 181.96875 298.253906 183.824219 295.9375 183.824219 C 293.617188 183.824219 291.761719 181.96875 291.761719 179.652344 C 291.761719 177.332031 293.617188 175.480469 295.9375 175.480469 C 298.253906 175.480469 300.109375 177.332031 300.109375 179.652344 Z M 283.417969 179.652344 C 283.417969 181.96875 281.5625 183.824219 279.242188 183.824219 C 276.925781 183.824219 275.070312 181.96875 275.070312 179.652344 C 275.070312 177.332031 276.925781 175.480469 279.242188 175.480469 C 281.5625 175.480469 283.417969 177.332031 283.417969 179.652344 Z M 266.722656 179.652344 C 266.722656 181.96875 264.871094 183.824219 262.550781 183.824219 C 260.234375 183.824219 258.378906 181.96875 258.378906 179.652344 C 258.378906 177.332031 260.234375 175.480469 262.550781 175.480469 C 264.871094 175.480469 266.722656 177.332031 266.722656 179.652344 Z M 250.03125 179.652344 C 250.03125 181.96875 248.175781 183.824219 245.859375 183.824219 C 243.539062 183.824219 241.6875 181.96875 241.6875 179.652344 C 241.6875 177.332031 243.539062 175.480469 245.859375 175.480469 C 248.175781 175.480469 250.03125 177.332031 250.03125 179.652344 Z M 233.339844 179.652344 C 233.339844 181.96875 231.484375 183.824219 229.167969 183.824219 C 226.847656 183.824219 224.992188 181.96875 224.992188 179.652344 C 224.992188 177.332031 226.847656 175.480469 229.167969 175.480469 C 231.484375 175.480469 233.339844 177.332031 233.339844 179.652344 Z M 216.714844 179.652344 C 216.714844 181.96875 214.859375 183.824219 212.539062 183.824219 C 210.222656 183.824219 208.367188 181.96875 208.367188 179.652344 C 208.367188 177.332031 210.222656 175.480469 212.539062 175.480469 C 214.792969 175.480469 216.714844 177.332031 216.714844 179.652344 Z M 241.6875 129.574219 C 241.6875 127.257812 243.539062 125.402344 245.859375 125.402344 C 248.175781 125.402344 250.03125 127.257812 250.03125 129.574219 C 250.03125 131.894531 248.175781 133.75 245.859375 133.75 C 243.539062 133.75 241.6875 131.894531 241.6875 129.574219 Z M 258.378906 129.574219 C 258.378906 127.257812 260.234375 125.402344 262.550781 125.402344 C 264.871094 125.402344 266.722656 127.257812 266.722656 129.574219 C 266.722656 131.894531 264.871094 133.75 262.550781 133.75 C 260.234375 133.75 258.378906 131.894531 258.378906 129.574219 Z M 275.070312 129.574219 C 275.070312 127.257812 276.925781 125.402344 279.242188 125.402344 C 281.5625 125.402344 283.417969 127.257812 283.417969 129.574219 C 283.417969 131.894531 281.5625 133.75 279.242188 133.75 C 276.925781 133.75 275.070312 131.894531 275.070312 129.574219 Z M 208.300781 146.265625 C 208.300781 143.949219 210.15625 142.09375 212.476562 142.09375 C 214.792969 142.09375 216.648438 143.949219 216.648438 146.265625 C 216.648438 148.585938 214.792969 150.441406 212.476562 150.441406 C 210.15625 150.441406 208.300781 148.585938 208.300781 146.265625 Z M 224.992188 146.265625 C 224.992188 143.949219 226.847656 142.09375 229.167969 142.09375 C 231.484375 142.09375 233.339844 143.949219 233.339844 146.265625 C 233.339844 148.585938 231.484375 150.441406 229.167969 150.441406 C 226.847656 150.441406 224.992188 148.585938 224.992188 146.265625 Z M 241.6875 146.265625 C 241.6875 143.949219 243.539062 142.09375 245.859375 142.09375 C 248.175781 142.09375 250.03125 143.949219 250.03125 146.265625 C 250.03125 148.585938 248.175781 150.441406 245.859375 150.441406 C 243.539062 150.441406 241.6875 148.585938 241.6875 146.265625 Z M 258.378906 146.265625 C 258.378906 143.949219 260.234375 142.09375 262.550781 142.09375 C 264.871094 142.09375 266.722656 143.949219 266.722656 146.265625 C 266.722656 148.585938 264.871094 150.441406 262.550781 150.441406 C 260.234375 150.441406 258.378906 148.585938 258.378906 146.265625 Z M 275.070312 146.265625 C 275.070312 143.949219 276.925781 142.09375 279.242188 142.09375 C 281.5625 142.09375 283.417969 143.949219 283.417969 146.265625 C 283.417969 148.585938 281.5625 150.441406 279.242188 150.441406 C 276.925781 150.441406 275.070312 148.585938 275.070312 146.265625 Z M 291.761719 146.265625 C 291.761719 143.949219 293.617188 142.09375 295.9375 142.09375 C 298.253906 142.09375 300.109375 143.949219 300.109375 146.265625 C 300.109375 148.585938 298.253906 150.441406 295.9375 150.441406 C 293.617188 150.441406 291.761719 148.585938 291.761719 146.265625 Z M 191.609375 162.960938 C 191.609375 160.640625 193.464844 158.785156 195.78125 158.785156 C 198.101562 158.785156 199.957031 160.640625 199.957031 162.960938 C 199.957031 165.277344 198.101562 167.132812 195.78125 167.132812 C 193.464844 167.132812 191.609375 165.277344 191.609375 162.960938 Z M 208.300781 162.960938 C 208.300781 160.640625 210.15625 158.785156 212.476562 158.785156 C 214.792969 158.785156 216.648438 160.640625 216.648438 162.960938 C 216.648438 165.277344 214.792969 167.132812 212.476562 167.132812 C 210.15625 167.132812 208.300781 165.277344 208.300781 162.960938 Z M 224.992188 162.960938 C 224.992188 160.640625 226.847656 158.785156 229.167969 158.785156 C 231.484375 158.785156 233.339844 160.640625 233.339844 162.960938 C 233.339844 165.277344 231.484375 167.132812 229.167969 167.132812 C 226.847656 167.132812 224.992188 165.277344 224.992188 162.960938 Z M 241.6875 162.960938 C 241.6875 160.640625 243.539062 158.785156 245.859375 158.785156 C 248.175781 158.785156 250.03125 160.640625 250.03125 162.960938 C 250.03125 165.277344 248.175781 167.132812 245.859375 167.132812 C 243.539062 167.132812 241.6875 165.277344 241.6875 162.960938 Z M 258.378906 162.960938 C 258.378906 160.640625 260.234375 158.785156 262.550781 158.785156 C 264.871094 158.785156 266.722656 160.640625 266.722656 162.960938 C 266.722656 165.277344 264.871094 167.132812 262.550781 167.132812 C 260.234375 167.132812 258.378906 165.277344 258.378906 162.960938 Z M 275.070312 162.960938 C 275.070312 160.640625 276.925781 158.785156 279.242188 158.785156 C 281.5625 158.785156 283.417969 160.640625 283.417969 162.960938 C 283.417969 165.277344 281.5625 167.132812 279.242188 167.132812 C 276.925781 167.132812 275.070312 165.277344 275.070312 162.960938 Z M 291.761719 162.960938 C 291.761719 160.640625 293.617188 158.785156 295.9375 158.785156 C 298.253906 158.785156 300.109375 160.640625 300.109375 162.960938 C 300.109375 165.277344 298.253906 167.132812 295.9375 167.132812 C 293.617188 167.132812 291.761719 165.277344 291.761719 162.960938 Z M 308.453125 162.960938 C 308.453125 160.640625 310.308594 158.785156 312.628906 158.785156 C 314.945312 158.785156 316.800781 160.640625 316.800781 162.960938 C 316.800781 165.277344 314.945312 167.132812 312.628906 167.132812 C 310.308594 167.132812 308.453125 165.277344 308.453125 162.960938 Z M 132.855469 175.148438 C 132.191406 175.347656 131.464844 175.480469 130.800781 175.609375 C 130.472656 175.675781 130.140625 175.742188 129.808594 175.808594 L 129.808594 174.882812 C 129.808594 174.285156 129.277344 173.757812 128.683594 173.757812 L 119.609375 175.214844 L 119.609375 175.546875 L 119.078125 175.546875 L 116.03125 180.511719 C 115.964844 180.644531 115.898438 180.777344 115.898438 180.910156 L 114.574219 193.828125 C 114.574219 193.894531 114.574219 194.027344 114.507812 194.09375 L 112.121094 200.1875 C 112.121094 200.1875 112.121094 200.253906 112.121094 200.253906 L 118.019531 200.253906 L 119.671875 182.433594 L 119.671875 200.582031 L 128.75 202.039062 C 129.34375 202.039062 129.875 201.511719 129.875 200.914062 L 129.875 199.988281 C 130.207031 200.054688 130.535156 200.121094 130.867188 200.1875 C 131.53125 200.320312 132.257812 200.515625 132.921875 200.648438 C 133.582031 200.847656 134.3125 200.980469 134.976562 201.179688 C 136.367188 201.578125 137.691406 201.910156 139.082031 202.371094 C 140.472656 202.769531 141.796875 203.234375 143.121094 203.695312 C 144.445312 204.226562 145.773438 204.691406 147.097656 205.21875 C 148.421875 205.75 149.679688 206.28125 150.9375 206.875 C 152.195312 207.472656 153.390625 208.003906 154.582031 208.664062 C 155.773438 209.261719 156.964844 209.855469 158.09375 210.519531 C 159.21875 211.183594 160.34375 211.777344 161.339844 212.375 C 163.457031 213.632812 165.378906 214.890625 167.167969 216.082031 C 168.957031 217.277344 170.546875 218.46875 171.9375 219.527344 C 172.597656 220.058594 173.261719 220.585938 173.855469 221.050781 C 174.453125 221.515625 174.984375 221.980469 175.445312 222.375 C 175.578125 222.507812 175.777344 222.640625 175.910156 222.773438 C 194.058594 249.203125 230.625 266.890625 263.414062 266.890625 C 286.464844 266.890625 305.804688 259.667969 319.253906 245.957031 C 332.832031 232.179688 340.050781 212.109375 340.050781 187.996094 C 340.050781 163.886719 332.832031 143.75 319.253906 129.90625 C 305.804688 116.195312 286.464844 108.976562 263.414062 108.976562 C 230.625 108.976562 193.992188 126.660156 175.910156 153.089844 C 175.777344 153.222656 175.644531 153.355469 175.445312 153.488281 C 174.984375 153.886719 174.453125 154.347656 173.855469 154.8125 C 173.261719 155.277344 172.597656 155.804688 171.9375 156.335938 C 170.546875 157.394531 168.957031 158.585938 167.167969 159.78125 C 165.378906 160.972656 163.457031 162.230469 161.339844 163.488281 C 160.277344 164.152344 159.152344 164.75 158.09375 165.34375 C 156.964844 165.941406 155.773438 166.601562 154.582031 167.199219 C 153.390625 167.796875 152.132812 168.390625 150.9375 168.988281 C 149.679688 169.515625 148.421875 170.113281 147.097656 170.644531 C 145.773438 171.171875 144.445312 171.636719 143.121094 172.167969 C 141.796875 172.628906 140.472656 173.09375 139.082031 173.492188 C 137.757812 173.957031 136.367188 174.285156 134.976562 174.683594 C 134.246094 174.816406 133.582031 175.015625 132.855469 175.148438 Z M 130.867188 185.546875 C 131.597656 185.347656 132.324219 185.148438 133.054688 185.015625 C 133.78125 184.820312 134.511719 184.621094 135.304688 184.421875 C 136.035156 184.222656 136.761719 184.023438 137.558594 183.757812 C 139.015625 183.296875 140.539062 182.832031 141.996094 182.300781 C 143.453125 181.835938 144.910156 181.242188 146.367188 180.710938 C 147.824219 180.117188 149.214844 179.585938 150.605469 178.921875 C 152 178.328125 153.390625 177.664062 154.714844 177.003906 C 156.039062 176.339844 157.363281 175.675781 158.621094 174.949219 C 159.882812 174.285156 161.140625 173.558594 162.332031 172.828125 C 163.523438 172.101562 164.714844 171.4375 165.777344 170.710938 C 166.371094 170.3125 167.101562 170.910156 166.902344 171.570312 C 165.3125 176.871094 164.453125 182.367188 164.453125 187.996094 C 164.453125 193.628906 165.3125 199.125 166.902344 204.425781 C 167.101562 205.085938 166.371094 205.617188 165.777344 205.285156 C 164.648438 204.558594 163.523438 203.894531 162.332031 203.167969 C 161.140625 202.503906 159.882812 201.777344 158.621094 201.046875 C 157.363281 200.320312 156.039062 199.65625 154.714844 198.992188 C 153.390625 198.332031 152 197.667969 150.605469 197.074219 C 149.214844 196.410156 147.757812 195.878906 146.367188 195.285156 C 144.910156 194.753906 143.453125 194.160156 141.996094 193.695312 C 140.539062 193.164062 139.082031 192.699219 137.558594 192.238281 C 136.828125 192.039062 136.101562 191.839844 135.304688 191.574219 C 134.578125 191.375 133.847656 191.175781 133.054688 190.980469 C 132.324219 190.78125 131.597656 190.582031 130.867188 190.449219 C 130.535156 190.382812 130.140625 190.316406 129.808594 190.183594 L 129.808594 185.8125 C 130.207031 185.746094 130.535156 185.679688 130.867188 185.546875 Z M 167.894531 214.03125 C 166.105469 212.835938 164.1875 211.578125 162.066406 210.320312 C 161.007812 209.65625 159.882812 209.0625 158.820312 208.464844 C 157.695312 207.871094 156.503906 207.207031 155.308594 206.609375 C 154.117188 206.015625 152.859375 205.417969 151.667969 204.824219 C 150.410156 204.292969 149.148438 203.695312 147.824219 203.167969 C 146.5 202.636719 145.175781 202.171875 143.851562 201.644531 C 142.527344 201.179688 141.203125 200.714844 139.808594 200.320312 C 138.484375 199.855469 137.09375 199.523438 135.703125 199.125 C 135.042969 198.925781 134.3125 198.796875 133.648438 198.597656 C 132.988281 198.398438 132.257812 198.265625 131.597656 198.132812 C 131 198 130.472656 197.867188 129.875 197.734375 L 129.875 195.152344 C 130.007812 195.21875 130.140625 195.21875 130.273438 195.285156 C 131.664062 195.683594 133.121094 196.078125 134.511719 196.542969 C 135.902344 196.941406 137.292969 197.46875 138.683594 197.933594 C 140.074219 198.464844 141.464844 198.925781 142.792969 199.523438 C 144.117188 200.054688 145.441406 200.648438 146.765625 201.246094 C 148.023438 201.84375 149.347656 202.4375 150.542969 203.101562 C 151.800781 203.695312 152.992188 204.359375 154.183594 205.019531 C 155.375 205.683594 156.503906 206.28125 157.5625 206.941406 C 159.75 208.265625 161.800781 209.527344 163.589844 210.785156 C 165.445312 212.042969 167.101562 213.234375 168.492188 214.359375 C 169.21875 214.890625 169.882812 215.421875 170.480469 215.949219 C 171.074219 216.414062 171.605469 216.8125 172.070312 217.210938 C 170.875 216.148438 169.417969 215.089844 167.894531 214.03125 Z M 189.160156 147.394531 C 192.339844 143.949219 195.914062 140.570312 200.023438 137.257812 C 200.550781 136.863281 201.082031 136.464844 201.613281 136.066406 C 202.140625 135.667969 202.671875 135.273438 203.203125 134.875 C 203.730469 134.476562 204.261719 134.078125 204.855469 133.683594 C 205.386719 133.285156 205.984375 132.886719 206.578125 132.554688 C 207.175781 132.160156 207.707031 131.761719 208.300781 131.429688 C 208.898438 131.03125 209.492188 130.703125 210.089844 130.304688 C 210.6875 129.90625 211.28125 129.574219 211.878906 129.179688 C 212.476562 128.78125 213.136719 128.449219 213.734375 128.117188 C 218.765625 125.269531 224.199219 122.6875 230.027344 120.566406 C 235.855469 118.445312 242.082031 116.660156 248.574219 115.464844 C 249.371094 115.332031 250.230469 115.203125 251.027344 115.070312 C 251.421875 115.003906 251.820312 114.9375 252.285156 114.871094 C 252.683594 114.804688 253.144531 114.738281 253.542969 114.738281 C 254.402344 114.671875 255.199219 114.539062 256.058594 114.472656 C 256.921875 114.339844 257.714844 114.339844 258.578125 114.273438 C 258.972656 114.273438 259.4375 114.207031 259.835938 114.207031 C 260.234375 114.207031 260.695312 114.140625 261.09375 114.140625 C 261.957031 114.140625 262.816406 114.074219 263.675781 114.074219 L 266.261719 114.074219 C 267.121094 114.074219 267.984375 114.074219 268.84375 114.140625 C 269.707031 114.207031 270.566406 114.273438 271.492188 114.273438 C 271.957031 114.273438 272.355469 114.339844 272.820312 114.339844 L 274.144531 114.472656 C 275.003906 114.539062 275.867188 114.605469 276.792969 114.738281 C 277.652344 114.871094 278.515625 115.003906 279.441406 115.136719 C 280.304688 115.265625 281.164062 115.464844 282.09375 115.597656 C 282.953125 115.796875 283.878906 115.929688 284.742188 116.128906 C 285.601562 116.328125 286.464844 116.527344 287.390625 116.726562 C 288.253906 116.988281 289.113281 117.253906 289.972656 117.453125 C 290.835938 117.71875 291.695312 117.984375 292.558594 118.316406 C 293.417969 118.644531 294.28125 118.910156 295.140625 119.242188 C 296.003906 119.574219 296.863281 119.902344 297.65625 120.300781 C 298.519531 120.699219 299.3125 121.097656 300.175781 121.492188 C 303.488281 123.148438 306.667969 125.070312 309.714844 127.257812 C 310.441406 127.851562 311.171875 128.382812 311.964844 128.980469 C 312.695312 129.574219 313.421875 130.238281 314.085938 130.832031 C 314.484375 131.164062 314.8125 131.496094 315.144531 131.761719 L 316.140625 132.753906 L 316.667969 133.21875 L 316.800781 133.351562 C 316.867188 133.417969 316.867188 133.417969 316.933594 133.484375 L 317.199219 133.75 L 318.125 134.742188 L 319.054688 135.734375 C 319.382812 136.066406 319.648438 136.464844 319.980469 136.863281 L 320.90625 137.988281 L 321.371094 138.515625 L 321.769531 139.113281 C 322.300781 139.910156 322.894531 140.636719 323.425781 141.433594 C 323.953125 142.226562 324.484375 143.023438 324.949219 143.816406 C 326.9375 147.0625 328.65625 150.507812 330.113281 154.082031 C 331.574219 157.660156 332.632812 161.304688 333.558594 165.078125 L 334.15625 167.925781 L 334.6875 170.777344 C 334.882812 171.703125 334.949219 172.695312 335.082031 173.625 C 335.214844 174.550781 335.347656 175.546875 335.414062 176.472656 L 335.679688 179.320312 C 335.746094 180.25 335.8125 181.242188 335.878906 182.167969 L 335.945312 183.625 C 335.945312 184.089844 335.945312 184.554688 335.945312 185.082031 L 336.011719 187.996094 L 335.945312 190.847656 C 335.945312 191.308594 335.945312 191.773438 335.878906 192.304688 L 335.8125 193.761719 C 335.746094 194.753906 335.679688 195.683594 335.613281 196.675781 L 335.347656 199.523438 C 335.28125 200.449219 335.082031 201.445312 334.949219 202.371094 C 334.816406 203.300781 334.6875 204.292969 334.488281 205.21875 L 333.957031 208.070312 L 333.292969 210.851562 C 332.367188 214.558594 331.242188 218.269531 329.785156 221.78125 C 328.328125 225.289062 326.605469 228.734375 324.617188 231.980469 C 324.085938 232.777344 323.558594 233.570312 323.09375 234.367188 C 322.5625 235.160156 321.96875 235.890625 321.4375 236.683594 L 321.039062 237.28125 L 320.578125 237.808594 L 319.648438 238.871094 C 319.316406 239.199219 319.054688 239.597656 318.722656 239.929688 L 317.726562 240.988281 L 316.734375 242.050781 L 316.46875 242.3125 L 316.203125 242.578125 L 315.675781 243.042969 L 314.679688 243.96875 C 314.351562 244.300781 314.019531 244.632812 313.621094 244.898438 C 312.894531 245.492188 312.164062 246.089844 311.503906 246.753906 C 310.773438 247.347656 310.042969 247.878906 309.25 248.472656 C 306.203125 250.660156 303.023438 252.515625 299.777344 254.171875 C 298.917969 254.566406 298.121094 254.964844 297.261719 255.296875 C 296.398438 255.628906 295.539062 255.960938 294.742188 256.289062 C 293.882812 256.621094 293.019531 256.886719 292.160156 257.21875 C 291.300781 257.484375 290.4375 257.8125 289.578125 258.078125 C 288.714844 258.34375 287.855469 258.542969 286.992188 258.808594 C 286.132812 259.007812 285.269531 259.203125 284.410156 259.402344 C 283.550781 259.601562 282.6875 259.734375 281.761719 259.933594 C 280.898438 260.066406 280.039062 260.265625 279.109375 260.398438 C 278.25 260.53125 277.390625 260.664062 276.460938 260.792969 C 275.601562 260.925781 274.738281 260.992188 273.878906 261.058594 L 272.554688 261.191406 C 272.089844 261.257812 271.691406 261.257812 271.230469 261.257812 C 270.367188 261.324219 269.507812 261.324219 268.644531 261.390625 C 267.785156 261.390625 266.921875 261.457031 266.0625 261.457031 L 263.480469 261.457031 C 262.617188 261.457031 261.757812 261.390625 260.960938 261.390625 C 260.5625 261.390625 260.101562 261.324219 259.703125 261.324219 C 259.304688 261.324219 258.84375 261.257812 258.445312 261.257812 C 257.582031 261.191406 256.722656 261.125 255.925781 261.058594 C 255.066406 260.992188 254.273438 260.859375 253.410156 260.792969 C 253.011719 260.726562 252.550781 260.726562 252.152344 260.664062 C 251.753906 260.597656 251.355469 260.53125 250.894531 260.464844 C 250.097656 260.332031 249.238281 260.199219 248.441406 260.066406 C 241.949219 258.941406 235.789062 257.152344 229.960938 255.03125 C 224.132812 252.914062 218.699219 250.394531 213.734375 247.613281 C 213.136719 247.28125 212.476562 246.949219 211.878906 246.554688 C 211.28125 246.15625 210.6875 245.824219 210.089844 245.425781 C 209.492188 245.03125 208.898438 244.699219 208.300781 244.300781 C 207.707031 243.902344 207.175781 243.574219 206.578125 243.175781 C 205.984375 242.777344 205.453125 242.445312 204.855469 242.050781 C 204.328125 241.652344 203.730469 241.253906 203.203125 240.855469 C 202.671875 240.460938 202.140625 240.0625 201.613281 239.664062 C 201.082031 239.265625 200.550781 238.871094 200.023438 238.472656 C 195.914062 235.226562 192.273438 231.847656 189.09375 228.46875 C 182.800781 221.648438 178.429688 214.625 175.84375 208.464844 C 174.519531 205.417969 173.59375 202.570312 172.996094 200.054688 C 172.398438 197.535156 172.070312 195.351562 171.804688 193.5625 C 171.605469 191.773438 171.539062 190.382812 171.539062 189.457031 C 171.539062 188.527344 171.539062 188.0625 171.539062 188.0625 C 171.539062 188.0625 171.539062 187.601562 171.539062 186.671875 C 171.539062 185.746094 171.605469 184.355469 171.804688 182.566406 C 172.203125 178.988281 173.128906 173.757812 175.777344 167.597656 C 177.035156 164.484375 178.757812 161.238281 180.945312 157.792969 C 183.394531 154.347656 186.046875 150.902344 189.160156 147.394531 Z M 147.757812 172.761719 C 149.082031 172.234375 150.34375 171.703125 151.601562 171.105469 C 152.859375 170.511719 154.050781 169.980469 155.246094 169.320312 C 156.4375 168.722656 157.628906 168.125 158.753906 167.464844 C 159.882812 166.800781 161.007812 166.207031 162 165.609375 C 164.121094 164.351562 166.042969 163.09375 167.828125 161.898438 C 169.417969 160.839844 170.808594 159.78125 172.070312 158.851562 C 171.605469 159.25 171.074219 159.648438 170.480469 160.113281 C 169.882812 160.574219 169.21875 161.105469 168.492188 161.699219 C 167.035156 162.761719 165.378906 164.019531 163.589844 165.277344 C 161.734375 166.535156 159.75 167.863281 157.5625 169.121094 C 156.503906 169.78125 155.308594 170.378906 154.183594 171.039062 C 152.992188 171.636719 151.800781 172.300781 150.542969 172.960938 C 149.28125 173.625 148.023438 174.152344 146.765625 174.816406 C 145.441406 175.414062 144.117188 176.007812 142.792969 176.539062 C 141.464844 177.136719 140.074219 177.597656 138.683594 178.128906 C 137.292969 178.59375 135.902344 179.121094 134.511719 179.519531 C 133.121094 179.984375 131.664062 180.378906 130.273438 180.777344 C 130.140625 180.84375 130.007812 180.84375 129.875 180.910156 L 129.875 178.328125 C 130.472656 178.195312 131 178.0625 131.597656 177.929688 C 132.257812 177.796875 132.988281 177.597656 133.648438 177.464844 C 134.3125 177.265625 135.042969 177.136719 135.703125 176.9375 C 137.09375 176.539062 138.417969 176.207031 139.808594 175.742188 C 141.203125 175.347656 142.527344 174.882812 143.851562 174.417969 C 145.109375 173.824219 146.433594 173.292969 147.757812 172.761719 Z M 67.941406 193.628906 L 65.292969 200.382812 L 52.640625 200.382812 C 52.640625 200.382812 52.640625 200.320312 52.640625 200.320312 L 55.023438 194.222656 C 55.023438 194.160156 55.089844 194.027344 55.089844 193.960938 L 56.414062 181.042969 C 56.414062 180.910156 56.480469 180.777344 56.546875 180.644531 L 59.59375 175.675781 L 71.980469 175.675781 C 71.980469 175.742188 71.914062 175.808594 71.914062 175.875 L 69.53125 179.851562 C 69.464844 179.984375 69.398438 180.117188 69.398438 180.25 L 68.074219 193.429688 C 68.007812 193.429688 67.941406 193.496094 67.941406 193.628906 Z M 67.476562 200.320312 L 69.929688 194.160156 C 69.929688 194.09375 69.996094 193.960938 69.996094 193.894531 L 71.320312 180.976562 C 71.320312 180.84375 71.386719 180.710938 71.453125 180.578125 L 74.5 175.609375 L 86.886719 175.609375 C 86.886719 175.675781 86.820312 175.742188 86.820312 175.808594 L 84.433594 179.785156 C 84.367188 179.917969 84.300781 180.050781 84.300781 180.183594 L 82.976562 193.363281 C 82.976562 193.429688 82.976562 193.5625 82.910156 193.628906 L 80.261719 200.382812 L 67.476562 200.382812 Z M 82.382812 200.320312 L 84.832031 194.160156 C 84.832031 194.09375 84.898438 193.960938 84.898438 193.894531 L 86.222656 180.976562 C 86.222656 180.84375 86.289062 180.710938 86.355469 180.578125 L 89.402344 175.609375 L 101.789062 175.609375 C 101.789062 175.675781 101.722656 175.742188 101.722656 175.808594 L 99.339844 179.785156 C 99.273438 179.917969 99.207031 180.050781 99.207031 180.183594 L 97.882812 193.363281 C 97.882812 193.429688 97.882812 193.5625 97.816406 193.628906 L 95.164062 200.382812 L 82.382812 200.382812 Z M 97.21875 200.320312 L 99.667969 194.160156 C 99.667969 194.09375 99.734375 193.960938 99.734375 193.894531 L 101.0625 180.976562 C 101.0625 180.84375 101.125 180.710938 101.191406 180.578125 L 104.238281 175.609375 L 116.625 175.609375 C 116.625 175.675781 116.5625 175.742188 116.5625 175.808594 L 114.175781 179.785156 C 114.109375 179.917969 114.042969 180.050781 114.042969 180.183594 L 112.71875 193.363281 C 112.71875 193.429688 112.71875 193.5625 112.652344 193.628906 L 110.003906 200.382812 L 97.21875 200.382812 Z M 97.21875 200.320312 " fill-opacity="1" fill-rule="nonzero"/></g><g clip-path="url(#30bb99e48e)"><g clip-path="url(#5b952b6e98)"><path fill="#000000" d="M 116.175781 265.515625 L 126.445312 265.515625 L 126.445312 275.785156 L 116.175781 275.785156 Z M 116.175781 265.515625 " fill-opacity="1" fill-rule="nonzero"/></g></g><g clip-path="url(#99dd2b279c)"><g clip-path="url(#8899d653bc)"><path fill="#000000" d="M 246.894531 265.515625 L 257.164062 265.515625 L 257.164062 275.785156 L 246.894531 275.785156 Z M 246.894531 265.515625 " fill-opacity="1" fill-rule="nonzero"/></g></g></svg>