<?xml version="1.0" encoding="UTF-8"?>
<svg version="1.1" xmlns="http://www.w3.org/2000/svg" width="192" height="192">
<path d="M0 0 C1.11375 0.433125 2.2275 0.86625 3.375 1.3125 C6.37492729 0.02105022 6.37492729 0.02105022 9.375 -1.6875 C15.6241234 -2.39304619 20.23002177 -1.41789442 25.375 2.3125 C29.00851207 6.87768184 30.50770243 10.41659848 30.47265625 16.19921875 C30.46943359 17.13701172 30.46621094 18.07480469 30.46289062 19.04101562 C30.45032227 20.50571289 30.45032227 20.50571289 30.4375 22 C30.43298828 22.98806641 30.42847656 23.97613281 30.42382812 24.99414062 C30.41204303 27.43365474 30.39559011 29.87304689 30.375 32.3125 C26.83349107 32.40011663 23.29226367 32.45309739 19.75 32.5 C18.25146484 32.53770508 18.25146484 32.53770508 16.72265625 32.57617188 C11.02745074 32.63274676 7.4141721 32.22779027 2.375 29.3125 C-0.09311352 30.55927063 -0.09311352 30.55927063 -2.625 32.3125 C-8.46504662 33.74857704 -11.64410842 33.35642614 -16.9609375 30.61328125 C-18.93589686 29.06947499 -19.66958688 27.60452642 -20.625 25.3125 C-21.285 25.3125 -21.945 25.3125 -22.625 25.3125 C-25.91065361 19.62579183 -25.63446876 16.02958239 -24.265625 9.66796875 C-23.625 7.3125 -23.625 7.3125 -22.625 5.3125 C-21.965 5.3125 -21.305 5.3125 -20.625 5.3125 C-20.439375 4.714375 -20.25375 4.11625 -20.0625 3.5 C-15.69142912 -3.1516296 -6.45715024 -3.00591476 0 0 Z " fill="#E3F782" transform="translate(141.625,62.6875)"/>
<path d="M0 0 C2.24893954 -0.10823773 4.49937575 -0.18569645 6.75 -0.25 C8.00296875 -0.29640625 9.2559375 -0.3428125 10.546875 -0.390625 C14 0 14 0 16.453125 2.015625 C16.96359375 2.67046875 17.4740625 3.3253125 18 4 C18.53367188 3.34773438 19.06734375 2.69546875 19.6171875 2.0234375 C22.64289485 -0.54593366 24.21074657 -0.48079063 28.125 -0.375 C29.17945313 -0.36210938 30.23390625 -0.34921875 31.3203125 -0.3359375 C34 0 34 0 36 2 C36.33870968 8.32258065 36.33870968 8.32258065 35 11 C28.25 11.125 28.25 11.125 26 10 C25.67 10.99 25.34 11.98 25 13 C26.11375 12.938125 27.2275 12.87625 28.375 12.8125 C29.57125 12.874375 30.7675 12.93625 32 13 C34.92070674 17.3810601 33.84504474 20.96997181 33 26 C31.88959798 30.01453037 30.63820859 31.92102366 27 34 C22.56297509 35.5589547 19.37095322 34.45698441 15 33 C13.875 26.25 13.875 26.25 15 24 C21.15234375 23.90234375 21.15234375 23.90234375 23 24 C23.33 24.33 23.66 24.66 24 25 C24.33 23.68 24.66 22.36 25 21 C23.6078125 21.12375 23.6078125 21.12375 22.1875 21.25 C19 21 19 21 17.125 19 C16.75375 18.34 16.3825 17.68 16 17 C15.319375 17.825 14.63875 18.65 13.9375 19.5 C11 22 11 22 7.1875 22.3125 C6.135625 22.209375 5.08375 22.10625 4 22 C3.97421875 22.77085938 3.9484375 23.54171875 3.921875 24.3359375 C3.86515625 25.33882812 3.8084375 26.34171875 3.75 27.375 C3.68039063 28.87160156 3.68039063 28.87160156 3.609375 30.3984375 C3 33 3 33 1.265625 34.4140625 C-1.47446548 35.12270659 -3.27114125 34.62091424 -6 34 C-5.30946313 29.6395355 -4.61561493 25.27961476 -3.91870117 20.92016602 C-3.68211376 19.43723805 -3.44642979 17.95416565 -3.21166992 16.47094727 C-2.87396187 14.33831735 -2.53300199 12.20622896 -2.19140625 10.07421875 C-1.98717041 8.79119873 -1.78293457 7.50817871 -1.57250977 6.1862793 C-1 3 -1 3 0 0 Z M7 8 C6.67 9.98 6.34 11.96 6 14 C6.66 13.67 7.32 13.34 8 13 C8 11.35 8 9.7 8 8 C7.67 8 7.34 8 7 8 Z M16 9 C16 10.65 16 12.3 16 14 C16.33 14 16.66 14 17 14 C17 12.35 17 10.7 17 9 C16.67 9 16.34 9 16 9 Z " fill="#FEFEFD" transform="translate(136,97)"/>
<path d="M0 0 C2.64 0 5.28 0 8 0 C8.08206368 4.18524749 7.84189178 7.91081136 7 12 C7.33 12.33 7.66 12.66 8 13 C8.66 8.71 9.32 4.42 10 0 C12.64 0 15.28 0 18 0 C17.51449551 11.50645635 15.16717283 22.71684584 13 34 C6.125 35 6.125 35 5 35 C4.922643 30.43593679 5.05115281 26.47313676 6 22 C5.67 21.67 5.34 21.34 5 21 C4.34 25.29 3.68 29.58 3 34 C-2 35 -2 35 -5 34 C-4.61465294 22.36251893 -2.45479317 11.34913679 0 0 Z " fill="#FEFEFE" transform="translate(38,97)"/>
<path d="M0 0 C1.05832031 -0.02578125 2.11664063 -0.0515625 3.20703125 -0.078125 C6.53128805 0.28784823 7.8859709 0.84983393 10.1875 3.25 C10.91222654 9.25487708 9.88112738 15.06192841 8.9375 21 C8.82849365 21.73299316 8.7194873 22.46598633 8.60717773 23.22119141 C7.79913915 27.8556393 6.70097151 30.89040315 3.1875 34.25 C0.04804461 35.59270096 -3.18098921 35.35275608 -6.5625 35.3125 C-7.54734375 35.30347656 -8.5321875 35.29445312 -9.546875 35.28515625 C-10.29453125 35.27355469 -11.0421875 35.26195312 -11.8125 35.25 C-11.47400197 27.22759662 -10.2420169 19.4528727 -8.8125 11.5625 C-8.63428711 10.56976074 -8.45607422 9.57702148 -8.27246094 8.55419922 C-6.70337535 0.09726784 -6.70337535 0.09726784 0 0 Z M0.1875 9.25 C-0.8025 14.86 -1.7925 20.47 -2.8125 26.25 C-2.1525 26.25 -1.4925 26.25 -0.8125 26.25 C0.1775 20.64 1.1675 15.03 2.1875 9.25 C1.5275 9.25 0.8675 9.25 0.1875 9.25 Z " fill="#FEFEFD" transform="translate(70.8125,60.75)"/>
<path d="M0 0 C1.18851563 0.00902344 2.37703125 0.01804688 3.6015625 0.02734375 C4.51679687 0.03894531 5.43203125 0.05054688 6.375 0.0625 C5.68446313 4.4229645 4.99061493 8.78288524 4.29370117 13.14233398 C4.05711376 14.62526195 3.82142979 16.10833435 3.58666992 17.59155273 C3.24896187 19.72418265 2.90800199 21.85627104 2.56640625 23.98828125 C2.26005249 25.91281128 2.26005249 25.91281128 1.94750977 27.8762207 C1.375 31.0625 1.375 31.0625 0.375 34.0625 C-2.265 34.0625 -4.905 34.0625 -7.625 34.0625 C-7.54121094 33.35222656 -7.45742188 32.64195313 -7.37109375 31.91015625 C-7.26925781 30.99105469 -7.16742188 30.07195312 -7.0625 29.125 C-6.95808594 28.20847656 -6.85367188 27.29195312 -6.74609375 26.34765625 C-6.70613281 25.59355469 -6.66617188 24.83945313 -6.625 24.0625 C-6.955 23.7325 -7.285 23.4025 -7.625 23.0625 C-7.68558594 23.68898438 -7.74617188 24.31546875 -7.80859375 24.9609375 C-7.89238281 25.77820313 -7.97617187 26.59546875 -8.0625 27.4375 C-8.14371094 28.24960938 -8.22492187 29.06171875 -8.30859375 29.8984375 C-8.625 32.0625 -8.625 32.0625 -9.625 34.0625 C-12.265 34.0625 -14.905 34.0625 -17.625 34.0625 C-16.97238605 27.55613664 -16.03923027 21.17229379 -14.8125 14.75 C-14.58336914 13.43032227 -14.58336914 13.43032227 -14.34960938 12.08398438 C-13.4282452 7.28779219 -12.76087338 4.09330702 -8.625 1.0625 C-5.74084117 -0.37957941 -3.20778472 -0.03144887 0 0 Z M-4.625 8.0625 C-5.92133621 9.12895115 -5.92133621 9.12895115 -5.6875 11.625 C-5.666875 12.429375 -5.64625 13.23375 -5.625 14.0625 C-4.965 13.4025 -4.305 12.7425 -3.625 12.0625 C-3.9435177 9.95429203 -3.9435177 9.95429203 -4.625 8.0625 Z " fill="#FEFEFD" transform="translate(56.625,60.9375)"/>
<path d="M0 0 C2.64 0 5.28 0 8 0 C7.91621094 0.85464844 7.83242187 1.70929688 7.74609375 2.58984375 C7.64425781 3.69457031 7.54242188 4.79929687 7.4375 5.9375 C7.33308594 7.03964844 7.22867188 8.14179687 7.12109375 9.27734375 C7.08113281 10.17582031 7.04117188 11.07429688 7 12 C7.33 12.33 7.66 12.66 8 13 C8.66 8.71 9.32 4.42 10 0 C12.64 0 15.28 0 18 0 C17.68347868 6.23219573 17.36237663 10.65076446 14 16 C14.15597656 16.90363281 14.31195313 17.80726562 14.47265625 18.73828125 C15.04534078 22.2804411 14.72563733 24.86427294 14.0625 28.375 C13.86785156 29.43460938 13.67320313 30.49421875 13.47265625 31.5859375 C13.31667969 32.38257813 13.16070312 33.17921875 13 34 C9.535 34.495 9.535 34.495 6 35 C4 32 4 32 4 29 C3.505 31.475 3.505 31.475 3 34 C-3.875 35 -3.875 35 -5 35 C-4.55212563 23.1313292 -2.25392716 11.63302086 0 0 Z " fill="#FEFEFD" transform="translate(97,97)"/>
<path d="M0 0 C1.05445312 0.01289062 2.10890625 0.02578125 3.1953125 0.0390625 C5.875 0.375 5.875 0.375 7.875 2.375 C8.12197955 9.17281817 6.71395811 16.16935097 5.625 22.875 C5.52807861 23.5570752 5.43115723 24.23915039 5.33129883 24.94189453 C4.71912657 28.40814224 4.01375256 30.22943894 1.56640625 32.796875 C-1.15936829 34.39515209 -2.81786042 34.93875286 -5.9375 35.125 C-6.72769531 35.18171875 -7.51789062 35.2384375 -8.33203125 35.296875 C-8.92371094 35.32265625 -9.51539063 35.3484375 -10.125 35.375 C-10.455 34.715 -10.785 34.055 -11.125 33.375 C-12.115 33.045 -13.105 32.715 -14.125 32.375 C-13.77803365 25.28013642 -13.0990269 18.29662627 -11.8125 11.3125 C-11.58949219 10.08402344 -11.36648437 8.85554688 -11.13671875 7.58984375 C-9.1750054 1.3562913 -6.38631377 -0.17260307 0 0 Z M-2.125 8.375 C-4.11098493 14.33295479 -4.69545059 20.12392565 -5.125 26.375 C-2.65624858 23.90624858 -2.58038144 22.46648319 -2 19.0625 C-1.83242187 18.11761719 -1.66484375 17.17273438 -1.4921875 16.19921875 C-1.14785798 13.55081193 -1.05700203 11.04149174 -1.125 8.375 C-1.455 8.375 -1.785 8.375 -2.125 8.375 Z " fill="#FEFEFD" transform="translate(67.125,96.625)"/>
<path d="M0 0 C0.95003906 -0.00773437 1.90007812 -0.01546875 2.87890625 -0.0234375 C5.4375 0.375 5.4375 0.375 7.28515625 1.671875 C9.44416347 4.86281448 8.04927108 8.77909366 7.4375 12.375 C7.23448209 13.77326452 7.03276409 15.17171811 6.83203125 16.5703125 C6.5981875 18.08882512 6.36249297 19.60705383 6.125 21.125 C6.01978027 21.85799316 5.91456055 22.59098633 5.80615234 23.34619141 C5.03081241 27.99080644 3.98509107 31.03158683 0.4375 34.375 C-3.63224088 35.88932219 -7.49700898 35.67942601 -11.625 34.5 C-14.1778879 31.70005843 -13.82063368 29.61698073 -13.73803711 25.95556641 C-13.43942907 21.56573751 -12.67324083 17.31012759 -11.8125 13 C-11.65523438 12.11183594 -11.49796875 11.22367188 -11.3359375 10.30859375 C-10.0932896 3.99020712 -10.0932896 3.99020712 -7.76953125 1.296875 C-5.04800405 0.1600955 -2.94795561 -0.02406494 0 0 Z M-2.5625 8.375 C-3.79149346 14.44315522 -4.83810214 20.17395188 -4.5625 26.375 C-2.20876599 22.84439899 -1.90471585 19.78904244 -1.4375 15.6875 C-1.35113281 14.98560547 -1.26476562 14.28371094 -1.17578125 13.56054688 C-0.96423125 11.83288855 -0.762414 10.1040434 -0.5625 8.375 C-1.2225 8.375 -1.8825 8.375 -2.5625 8.375 Z " fill="#FEFEFD" transform="translate(86.5625,96.625)"/>
<path d="M0 0 C2.05078125 0.03255208 4.1015625 0.06510417 6.15234375 0.09765625 C6.06146484 0.65227539 5.97058594 1.20689453 5.87695312 1.77832031 C5.46548885 4.30091286 5.05887003 6.82426342 4.65234375 9.34765625 C4.43771484 10.65669922 4.43771484 10.65669922 4.21875 11.9921875 C4.01572266 13.25869141 4.01572266 13.25869141 3.80859375 14.55078125 C3.68291016 15.32583008 3.55722656 16.10087891 3.42773438 16.89941406 C3.06947309 19.38991468 3.06947309 19.38991468 3.15234375 23.09765625 C4.47234375 15.50765625 5.79234375 7.91765625 7.15234375 0.09765625 C9.79234375 0.09765625 12.43234375 0.09765625 15.15234375 0.09765625 C15.38533554 6.29351211 14.52435121 12.12541409 13.46484375 18.22265625 C13.31595703 19.19847656 13.16707031 20.17429687 13.01367188 21.1796875 C12.01640214 26.91301076 11.10337751 30.51984774 6.15234375 34.09765625 C2.43704223 35.56125988 -1.02018001 35.33900349 -4.84765625 34.22265625 C-7.46525726 31.44145517 -7.12221282 29.43923242 -7.03857422 25.74951172 C-6.69427187 20.96714336 -5.81397029 16.30124209 -4.91015625 11.59765625 C-4.72775391 10.59734375 -4.54535156 9.59703125 -4.35742188 8.56640625 C-2.78453545 0.14717418 -2.78453545 0.14717418 0 0 Z " fill="#FEFEFD" transform="translate(118.84765625,96.90234375)"/>
<path d="M0 0 C1.18851563 0.00902344 2.37703125 0.01804688 3.6015625 0.02734375 C4.51679687 0.03894531 5.43203125 0.05054688 6.375 0.0625 C6.045 2.7025 5.715 5.3425 5.375 8.0625 C4.74851562 8.08828125 4.12203125 8.1140625 3.4765625 8.140625 C2.65929687 8.19734375 1.84203125 8.2540625 1 8.3125 C0.18789062 8.35890625 -0.62421875 8.4053125 -1.4609375 8.453125 C-3.81338927 8.8547092 -3.81338927 8.8547092 -4.9140625 11.109375 C-5.14867188 11.75390625 -5.38328125 12.3984375 -5.625 13.0625 C-3.315 13.0625 -1.005 13.0625 1.375 13.0625 C1.41741723 15.39544775 1.41592937 17.72952567 1.375 20.0625 C-0.59322886 22.03072886 -3.97308709 21.72498381 -6.625 22.0625 C-6.955 23.3825 -7.285 24.7025 -7.625 26.0625 C-4.655 26.0625 -1.685 26.0625 1.375 26.0625 C1.41741723 28.39544775 1.41592937 30.72952567 1.375 33.0625 C0.375 34.0625 0.375 34.0625 -1.39086914 34.17602539 C-2.13973389 34.17078857 -2.88859863 34.16555176 -3.66015625 34.16015625 C-4.46904297 34.15693359 -5.27792969 34.15371094 -6.11132812 34.15039062 C-6.96146484 34.14201172 -7.81160156 34.13363281 -8.6875 34.125 C-9.54150391 34.12048828 -10.39550781 34.11597656 -11.27539062 34.11132812 C-13.39195663 34.09950373 -15.50848685 34.08156769 -17.625 34.0625 C-17.00585002 30.16300169 -16.36639904 26.26742025 -15.70849609 22.37426758 C-15.37966221 20.40294935 -15.0666668 18.42901027 -14.75390625 16.45507812 C-14.54121094 15.20791016 -14.32851562 13.96074219 -14.109375 12.67578125 C-13.92084961 11.52891846 -13.73232422 10.38205566 -13.53808594 9.20043945 C-12.51150013 5.67244282 -11.13486626 3.71679514 -8.625 1.0625 C-5.74084117 -0.37957941 -3.20778472 -0.03144887 0 0 Z " fill="#FEFEFE" transform="translate(95.625,60.9375)"/>
<path d="M0 0 C1.15113281 -0.03738281 2.30226563 -0.07476562 3.48828125 -0.11328125 C6.6875 0.3125 6.6875 0.3125 9.109375 2.0625 C11.4072086 5.33861919 10.86166499 7.20266686 10.23046875 10.99609375 C9.1502346 15.60457469 8.10101588 19.1889361 4.25 22.25 C1.6875 23.3125 1.6875 23.3125 -2.3125 23.3125 C-2.9725 26.9425 -3.6325 30.5725 -4.3125 34.3125 C-6.9525 34.3125 -9.5925 34.3125 -12.3125 34.3125 C-11.33808249 25.79494456 -10.22281713 17.32222557 -8.75 8.875 C-8.62326904 8.13580322 -8.49653809 7.39660645 -8.3659668 6.63500977 C-7.1949674 0.08591546 -6.59816468 0.13944953 0 0 Z M-0.3125 8.3125 C-0.3125 10.2925 -0.3125 12.2725 -0.3125 14.3125 C0.3475 13.6525 1.0075 12.9925 1.6875 12.3125 C1.6875 10.9925 1.6875 9.6725 1.6875 8.3125 C1.0275 8.3125 0.3675 8.3125 -0.3125 8.3125 Z " fill="#FEFEFD" transform="translate(32.3125,60.6875)"/>
<path d="M0 0 C2.64 0 5.28 0 8 0 C7.20376222 8.75861562 5.57802387 17.35560508 4 26 C6.97 26 9.94 26 13 26 C12.67 28.64 12.34 31.28 12 34 C6.06 34.33 0.12 34.66 -6 35 C-5.00431523 26.49838393 -3.9164251 18.05641647 -2.4375 9.625 C-2.31076904 8.89418213 -2.18403809 8.16336426 -2.0534668 7.41040039 C-1.12717544 2.25435088 -1.12717544 2.25435088 0 0 Z " fill="#FEFEFD" transform="translate(104,61)"/>
</svg>
