<?xml version="1.0" encoding="UTF-8"?>
<svg id="Layer_1" xmlns="http://www.w3.org/2000/svg" version="1.1" viewBox="0 0 797.15 389.28">
  <!-- Generator: Adobe Illustrator 30.2.1, SVG Export Plug-In . SVG Version: 2.1.1 Build 1)  -->
  <defs>
    <style>
      .st0 {
        fill: #fff;
      }

      .st1 {
        fill: #e3f77e;
      }
    </style>
  </defs>
  <g>
    <path class="st0" d="M473.42,274.26c4.19-4.66,6.96-10.42,8.24-17.11l9.45-54.5h-32.83l-9.37,53.51c-.61,3.25-1.57,5.79-2.95,7.81-1.18,1.73-3.59,3.78-8.34,3.78h-7.23l.62-3.54,10.75-61.56h-32.83l-28.66,163.12h32.8l10.93-62.6.44-2.5h6.18c5.17,0,7.15,2.41,7.9,4.44.81,2.2.9,4.89.27,8.24l-9.18,52.43h32.84l9.86-55.6c1.25-6.56.62-12.12-1.87-16.57-2.3-4.11-6.41-9.4-12.55-9.4,6.43,0,11.52-5.46,15.54-9.94Z"/>
    <path class="st0" d="M554.81,202.64l-15.39,87.73h0l-6.1,34.79c-.52,2.35-1.6,4.17-3.23,5.55-1.68,1.42-3.69,2.14-5.97,2.14-2.51,0-4.44-.76-5.73-2.27-1.34-1.56-1.82-3.71-1.41-6.39l5.93-33.82h0l15.39-87.73h-32.82l-15.4,87.73h0l-8.43,48.03c-1.58,8.52-.35,15.06,3.76,20.01,4.1,4.94,10.22,7.34,18.71,7.34h26.49c8.69,0,15.86-2.52,21.93-7.71,6.09-5.21,9.84-11.99,11.46-20.72l8.24-46.96h0l15.4-87.73h-32.81Z"/>
    <polygon class="st0" points="163.29 202.64 152.36 265.24 151.92 267.74 149.38 267.74 138.99 267.74 135.4 267.74 136.01 264.2 146.76 202.64 113.94 202.64 85.27 365.76 118.08 365.76 129 303.15 129.44 300.65 131.98 300.65 142.37 300.65 145.97 300.65 145.35 304.19 134.6 365.76 167.43 365.76 196.09 202.64 163.29 202.64"/>
    <path class="st0" d="M752.8,202.64h-26.49c-8.69,0-15.86,2.52-21.93,7.71-6.01,5.14-9.87,12.11-11.46,20.71l-3.08,17.43h0l-4.38,24.8c-1.42,8.51-.14,15.07,3.91,20.03,4.02,4.93,10.09,7.33,18.56,7.33h13.24c2.63,0,4.64.79,5.98,2.33,1.34,1.56,1.82,3.69,1.43,6.33l-2.23,12.63h-.05l-.57,3.22c-.52,2.35-1.6,4.17-3.23,5.55-1.68,1.42-3.69,2.14-5.98,2.14-2.51,0-4.44-.76-5.73-2.27-1.34-1.56-1.82-3.71-1.41-6.39l.39-2.24h-32.83l-2.89,16.46c-1.58,8.52-.35,15.06,3.76,20.01,4.11,4.94,10.22,7.34,18.71,7.34h26.49c8.69,0,15.86-2.52,21.93-7.71,6.09-5.21,9.84-11.99,11.46-20.72l2.72-15.39h.05l4.74-26.85c1.58-8.53.34-15.06-3.76-20.01-4.11-4.95-10.23-7.35-18.71-7.35h-13.24c-2.63,0-4.65-.78-5.98-2.33-1.34-1.56-1.82-3.69-1.43-6.33l1.87-10.59h0l.93-5.26.02-.1.03-.1c1.2-4.83,4.46-7.48,9.16-7.48,3.12,0,4.9,1.38,5.85,2.54.96,1.16,1.95,3.21,1.26,6.33l-.71,4.08h32.83l3.25-18.5c1.58-8.53.34-15.06-3.76-20.01-4.11-4.94-10.23-7.34-18.71-7.34Z"/>
    <path class="st0" d="M149.6,187.08l9.83-56.3.44-2.5h16.53l-.62,3.54-9.65,55.26h32.83l28.66-163.12h-45.74c-10.97,0-20.45,3.34-28.16,9.92-7.72,6.6-12.62,15.53-14.56,26.53l-22.34,126.67h32.79ZM166.44,91.81l4.42-24.67c.43-3.06,1.79-5.62,4.02-7.49,2.19-1.85,4.9-2.79,8.05-2.79h6.2l-.62,3.55-5.71,32.46-.44,2.5h-16.54l.64-3.56Z"/>
    <path class="st0" d="M119.67,94.94l6.75-38.69c1.76-10.08.27-17.82-4.54-23.66-4.81-5.81-12.03-8.64-22.08-8.64h-49.92l-28.66,163.12h32.8l9.82-56.3.44-2.5h16.04c10.13,0,18.86-3.04,25.97-9.03,7.11-5.99,11.61-14.17,13.38-24.31ZM91.34,69.53l-2.59,14.27c-.59,3.18-1.58,5.8-2.94,7.79-1.19,1.73-3.59,3.78-8.34,3.78h-7.24l.62-3.55,5.72-32.46.44-2.5h6.17c5.17,0,7.15,2.41,7.9,4.44.81,2.2.89,4.89.27,8.23Z"/>
    <polygon class="st0" points="494.74 187.08 500.44 154.17 454.95 154.17 451.35 154.17 451.97 150.62 474.31 23.96 441.5 23.96 412.85 187.08 494.74 187.08"/>
    <path class="st0" d="M675.09,211.27c-4.81-5.81-12.03-8.64-22.08-8.64h-49.92l-28.66,163.12h32.8l9.83-56.3.44-2.5h16.04c10.13,0,18.86-3.04,25.97-9.03,7.11-5.99,11.61-14.17,13.38-24.31l6.75-38.69c1.76-10.08.27-17.82-4.54-23.66ZM644.55,248.21l-2.6,14.27c-.6,3.23-1.56,5.77-2.94,7.79-1.18,1.73-3.59,3.78-8.34,3.78h-7.24l.62-3.55,5.72-32.46.44-2.5h6.17c5.17,0,7.15,2.41,7.9,4.44.81,2.2.89,4.88.27,8.23Z"/>
    <path class="st0" d="M396.07,187.08l5.7-32.91h-49.09l.62-3.55,4.59-26.15.44-2.5h38.18l5.92-32.91h-38.17l.64-3.56,3.31-18.37c.43-3.06,1.79-5.62,4.02-7.49,2.19-1.85,4.9-2.79,8.05-2.79h39l5.7-32.91h-45.75c-10.97,0-20.45,3.34-28.16,9.92-7.72,6.6-12.62,15.53-14.56,26.53l-22.33,126.67h81.89Z"/>
    <path class="st0" d="M264.32,188.34c10.12,0,18.8-3.03,25.82-9.01,7.03-5.99,11.49-14.17,13.27-24.32l17.28-97.5c1.76-10.08.27-17.81-4.54-23.65-4.81-5.81-12.03-8.64-22.08-8.64h-49.92l-14.35,81.56-14.33,81.56h48.86ZM254.59,151.88l16.24-91.26.44-2.49h6.17c5.17,0,7.15,2.41,7.9,4.44.81,2.2.89,4.88.27,8.23l-12.86,73.06c-.61,3.24-1.66,5.88-3.14,7.89-1.81,2.45-4.64,3.7-8.41,3.7h-7.24l.63-3.55Z"/>
    <path class="st0" d="M383.64,209.98c-4.11-4.94-10.23-7.34-18.71-7.34h-26.49c-8.69,0-15.86,2.52-21.93,7.71-6.01,5.14-9.87,12.11-11.46,20.71l-9.86,56.22h-.02l-8.96,51.12c-1.58,8.52-.35,15.06,3.76,20.01,4.1,4.94,10.22,7.34,18.71,7.34h26.49c8.69,0,15.86-2.52,21.93-7.71,6.09-5.21,9.84-11.99,11.46-20.72l8.77-50.04h.02l10.04-57.3c1.58-8.53.34-15.06-3.76-20.01ZM352.04,244.41l-7.5,42.87h-.01l-6.63,37.87c-.52,2.35-1.6,4.17-3.23,5.55-1.68,1.42-3.69,2.14-5.98,2.14-2.51,0-4.44-.76-5.73-2.27-1.34-1.56-1.82-3.71-1.41-6.39l6.46-36.9h.01l7.71-44.05.02-.11.03-.1c1.2-4.83,4.46-7.48,9.16-7.48,3.12,0,4.9,1.38,5.85,2.54.96,1.16,1.95,3.21,1.26,6.33Z"/>
    <path class="st0" d="M284.97,209.98c-4.11-4.94-10.23-7.34-18.71-7.34h-26.49c-8.69,0-15.86,2.52-21.93,7.71-6.01,5.14-9.87,12.11-11.46,20.71l-9.86,56.22h-.01l-8.96,51.12c-1.58,8.52-.35,15.06,3.76,20.01,4.1,4.94,10.22,7.34,18.71,7.34h26.49c8.69,0,15.86-2.52,21.93-7.71,6.09-5.21,9.84-11.99,11.46-20.72l8.77-50.04h.01l10.04-57.3c1.58-8.53.34-15.06-3.76-20.01ZM253.37,244.41l-7.5,42.87h0l-6.63,37.87c-.52,2.35-1.6,4.17-3.23,5.55-1.68,1.42-3.69,2.14-5.98,2.14-2.51,0-4.44-.76-5.73-2.27-1.34-1.56-1.82-3.71-1.41-6.39l6.46-36.9h0l7.71-44.05.02-.11.03-.1c1.2-4.83,4.46-7.48,9.16-7.48,3.12,0,4.9,1.38,5.85,2.54.96,1.16,1.95,3.21,1.26,6.33Z"/>
  </g>
  <g>
    <path class="st1" d="M593.96,146.43c17.59,3.6,34.86,11.1,46.82,20.24,17.23-14.97,28.15-37.03,28.15-61.59s-10.91-46.61-28.14-61.58c-11.96,9.27-29.4,16.88-47.17,20.52-8.37,1.71-16.79,2.57-25.17,2.57-16.1,0-32.03-3.15-47.07-9.37-9.79,13.45-15.57,30-15.57,47.87s5.87,34.68,15.8,48.19c22.89-9.49,47.85-11.86,72.35-6.84Z"/>
    <path class="st1" d="M592.37,57.94c22.18-4.54,36.88-13.65,43.42-18.45-13.55-10.03-30.31-15.98-48.43-15.98-24.79,0-47.03,11.12-62,28.63,21.27,8.42,44.34,10.44,67,5.8Z"/>
    <path class="st1" d="M525.64,158.33c14.97,17.33,37.09,28.31,61.73,28.31,18.11,0,34.85-5.94,48.4-15.96-6.71-4.86-21.27-13.72-43.05-18.18-22.69-4.64-45.79-2.62-67.08,5.83Z"/>
    <path class="st1" d="M726.77,186.64h49.16v-49.16c-8.92,22.37-26.79,40.25-49.16,49.16Z"/>
    <path class="st1" d="M658.17,53.29s.02-.03.04-.04c2.16-2.16,5.67-2.16,7.83,0,2.16,2.16,2.16,5.67,0,7.83-.59.59-1.29,1.02-2.03,1.29,6.65,11.89,10.62,25.47,11.07,39.93,2.17-1.97,5.53-1.91,7.63.18,2.16,2.16,2.16,5.67,0,7.83-2.13,2.14-5.58,2.16-7.74.08-1.43,23.87-12.44,45.19-29.23,60.17,13.99,10.4,31.12,16.09,48.64,16.09,44.97,0,81.56-36.59,81.56-81.56s-36.59-81.56-81.56-81.56c-17.52,0-34.64,5.69-48.63,16.09,4.61,4.11,8.77,8.7,12.43,13.68ZM748.4,143.45c-2.16,2.16-5.67,2.16-7.83,0-2.16-2.16-2.16-5.67,0-7.83,2.16-2.16,5.67-2.16,7.83,0,2.16,2.16,2.16,5.67,0,7.83ZM740.38,102.87c2.16-2.16,5.67-2.16,7.83,0,2.16,2.16,2.16,5.67,0,7.83-2.16,2.16-5.67,2.16-7.83,0-2.16-2.16-2.16-5.67,0-7.83ZM732.13,159.73c-2.16,2.16-5.67,2.16-7.83,0-2.16-2.16-2.16-5.67,0-7.83,2.16-2.16,5.67-2.16,7.83,0,2.16,2.16,2.16,5.67,0,7.83ZM731.93,126.97c-2.16,2.16-5.67,2.16-7.83,0-2.16-2.16-2.16-5.67,0-7.83,2.16-2.16,5.67-2.16,7.83,0,2.16,2.16,2.16,5.67,0,7.83ZM723.91,86.39c2.16-2.16,5.67-2.16,7.83,0,2.16,2.16,2.16,5.67,0,7.83-2.16,2.16-5.67,2.16-7.83,0-2.16-2.16-2.16-5.67,0-7.83ZM715.65,143.25c-2.16,2.16-5.67,2.16-7.83,0-2.16-2.16-2.16-5.67,0-7.83,2.16-2.16,5.67-2.16,7.83,0,2.16,2.16,2.16,5.67,0,7.83ZM715.46,110.5c-2.16,2.16-5.67,2.16-7.83,0-2.16-2.16-2.16-5.67,0-7.83,2.16-2.16,5.67-2.16,7.83,0,2.16,2.16,2.16,5.67,0,7.83ZM707.43,69.92c2.16-2.16,5.67-2.16,7.83,0,2.16,2.16,2.16,5.67,0,7.83-2.16,2.16-5.67,2.16-7.83,0-2.16-2.16-2.16-5.67,0-7.83ZM699.37,159.53c-2.16,2.16-5.67,2.16-7.83,0-2.16-2.16-2.16-5.67,0-7.83,2.16-2.16,5.67-2.16,7.83,0,2.16,2.16,2.16,5.67,0,7.83ZM699.18,126.78c-2.16,2.16-5.67,2.16-7.83,0-2.16-2.16-2.16-5.67,0-7.83,2.16-2.16,5.67-2.16,7.83,0,2.16,2.16,2.16,5.67,0,7.83ZM698.98,94.03c-2.16,2.16-5.67,2.16-7.83,0-2.16-2.16-2.16-5.67,0-7.83,2.16-2.16,5.67-2.16,7.83,0,2.16,2.16,2.16,5.67,0,7.83ZM690.96,53.44c2.16-2.16,5.67-2.16,7.83,0,2.16,2.16,2.16,5.67,0,7.83-2.16,2.16-5.67,2.16-7.83,0-2.16-2.16-2.16-5.67,0-7.83ZM682.9,143.06c-2.16,2.16-5.67,2.16-7.83,0-2.16-2.16-2.16-5.67,0-7.83,2.16-2.16,5.67-2.16,7.83,0,2.16,2.16,2.16,5.67,0,7.83ZM674.68,69.72c2.16-2.16,5.67-2.16,7.83,0,2.16,2.16,2.16,5.67,0,7.83-2.16,2.16-5.67,2.16-7.83,0-2.16-2.16-2.16-5.67,0-7.83Z"/>
  </g>
</svg>